{
	"asset":{
		"generator":"Khronos glTF Blender I/O v4.1.62",
		"version":"2.0"
	},
	"extensionsUsed":[
		"KHR_materials_anisotropy",
		"KHR_materials_specular",
		"KHR_materials_ior"
	],
	"scene":0,
	"scenes":[
		{
			"name":"Scene",
			"nodes":[
				0,
				1,
				2,
				3
			]
		}
	],
	"nodes":[
		{
			"name":"Empty",
			"scale":[
				124.03209686279297,
				124.03209686279297,
				124.03209686279297
			],
			"translation":[
				0,
				75,
				0
			]
		},
		{
			"mesh":0,
			"name":"Highly_detailed_3D_mo_0522184134_texture",
			"scale":[
				1.0449999570846558,
				1.0449999570846558,
				1.0449999570846558
			],
			"translation":[
				0.2232455015182495,
				1.51473069190979,
				0.08150280267000198
			]
		},
		{
			"mesh":1,
			"name":"another_stand2.002",
			"rotation":[
				0,
				0.7071068286895752,
				0,
				0.7071068286895752
			],
			"scale":[
				0.30000001192092896,
				0.30000001192092896,
				0.30000001192092896
			],
			"translation":[
				0.09835821390151978,
				0,
				0
			]
		},
		{
			"mesh":2,
			"name":"another_stand2.003",
			"rotation":[
				0,
				0.7071068286895752,
				0,
				0.7071068286895752
			],
			"scale":[
				0.30000001192092896,
				0.30000001192092896,
				0.30000001192092896
			],
			"translation":[
				0.09835821390151978,
				0,
				0
			]
		}
	],
	"materials":[
		{
			"doubleSided":true,
			"name":"Material.001",
			"pbrMetallicRoughness":{
				"baseColorTexture":{
					"index":0
				},
				"metallicFactor":0,
				"roughnessFactor":0.5
			}
		},
		{
			"doubleSided":true,
			"extensions":{
				"KHR_materials_anisotropy":{
					"anisotropyRotation":2.113435476636447
				}
			},
			"name":"Steel_rounded",
			"normalTexture":{
				"index":1,
				"scale":0.10000000149011612
			},
			"pbrMetallicRoughness":{
				"baseColorFactor":[
					0.5204030275344849,
					0.5204030275344849,
					0.5204030275344849,
					1
				],
				"metallicRoughnessTexture":{
					"index":2
				}
			}
		},
		{
			"doubleSided":true,
			"name":"Steel_knurled",
			"normalTexture":{
				"index":3
			},
			"pbrMetallicRoughness":{
				"metallicRoughnessTexture":{
					"index":4
				}
			}
		},
		{
			"extensions":{
				"KHR_materials_anisotropy":{
					"anisotropyRotation":3.5985518982450957
				}
			},
			"name":"Steel_rounded_2",
			"normalTexture":{
				"index":5,
				"scale":0.5
			},
			"pbrMetallicRoughness":{
				"baseColorFactor":[
					0.5204030275344849,
					0.5204030275344849,
					0.5204030275344849,
					1
				],
				"metallicRoughnessTexture":{
					"index":6
				}
			}
		},
		{
			"doubleSided":true,
			"extensions":{
				"KHR_materials_specular":{
					"specularFactor":0
				},
				"KHR_materials_ior":{
					"ior":1.4500000476837158
				}
			},
			"name":"Rubber_black",
			"normalTexture":{
				"index":7
			},
			"pbrMetallicRoughness":{
				"baseColorFactor":[
					0.009646999649703503,
					0.009646999649703503,
					0.009646999649703503,
					1
				],
				"metallicFactor":0,
				"metallicRoughnessTexture":{
					"index":8
				}
			}
		},
		{
			"doubleSided":true,
			"name":"Material.005",
			"pbrMetallicRoughness":{
				"baseColorTexture":{
					"index":9
				},
				"metallicFactor":0,
				"roughnessFactor":0.5
			}
		},
		{
			"doubleSided":true,
			"name":"Material.006",
			"pbrMetallicRoughness":{
				"baseColorFactor":[
					0.03954566642642021,
					0.04373425990343094,
					0.05286135897040367,
					1
				],
				"metallicFactor":0,
				"roughnessFactor":0.5
			}
		}
	],
	"meshes":[
		{
			"name":"Highly_detailed_3D_mo_0522184134_texture",
			"primitives":[
				{
					"attributes":{
						"POSITION":0,
						"NORMAL":1,
						"TEXCOORD_0":2
					},
					"indices":3,
					"material":0
				},
				{
					"attributes":{
						"POSITION":4,
						"NORMAL":5,
						"TEXCOORD_0":6
					},
					"indices":7,
					"material":1
				},
				{
					"attributes":{
						"POSITION":8,
						"NORMAL":9,
						"TEXCOORD_0":10
					},
					"indices":11,
					"material":2
				},
				{
					"attributes":{
						"POSITION":12,
						"NORMAL":13,
						"TEXCOORD_0":14
					},
					"indices":15,
					"material":3
				},
				{
					"attributes":{
						"POSITION":16,
						"NORMAL":17,
						"TEXCOORD_0":18
					},
					"indices":19,
					"material":4
				}
			]
		},
		{
			"name":"another_stand2.004",
			"primitives":[
				{
					"attributes":{
						"POSITION":20,
						"NORMAL":21,
						"TEXCOORD_0":22
					},
					"indices":23,
					"material":5
				}
			]
		},
		{
			"name":"another_stand2.005",
			"primitives":[
				{
					"attributes":{
						"POSITION":24,
						"NORMAL":25
					},
					"indices":26,
					"material":6
				}
			]
		}
	],
	"textures":[
		{
			"sampler":0,
			"source":0
		},
		{
			"sampler":0,
			"source":1
		},
		{
			"sampler":0,
			"source":2
		},
		{
			"sampler":0,
			"source":1
		},
		{
			"sampler":0,
			"source":2
		},
		{
			"sampler":0,
			"source":1
		},
		{
			"sampler":0,
			"source":2
		},
		{
			"sampler":0,
			"source":3
		},
		{
			"sampler":0,
			"source":4
		},
		{
			"sampler":0,
			"source":5
		}
	],
	"images":[
		{
			"mimeType":"image/png",
			"name":"Highly_detailed_3D_mo_0522184134_texture",
			"uri":"Highly_detailed_3D_mo_0522184134_texture.png"
		},
		{
			"mimeType":"image/png",
			"name":"Bake-DB-handle_Normal",
			"uri":"Bake-DB-handle_Normal.png"
		},
		{
			"mimeType":"image/png",
			"name":"Bake-DB-Handle_roughness",
			"uri":"Bake-DB-Handle_roughness.png"
		},
		{
			"mimeType":"image/png",
			"name":"Bake-DB-Caoutchouc_normal",
			"uri":"Bake-DB-Caoutchouc_normal.png"
		},
		{
			"mimeType":"image/png",
			"name":"Bake-DB-Caoutchouc_Roughness",
			"uri":"Bake-DB-Caoutchouc_Roughness.png"
		},
		{
			"mimeType":"image/png",
			"name":"Kuba",
			"uri":"Kuba.png"
		}
	],
	"accessors":[
		{
			"bufferView":0,
			"componentType":5126,
			"count":28438,
			"max":[
				0.37057268619537354,
				0.958702802658081,
				0.36192119121551514
			],
			"min":[
				-0.6633889675140381,
				-0.9540960788726807,
				-0.3092426061630249
			],
			"type":"VEC3"
		},
		{
			"bufferView":1,
			"componentType":5126,
			"count":28438,
			"type":"VEC3"
		},
		{
			"bufferView":2,
			"componentType":5126,
			"count":28438,
			"type":"VEC2"
		},
		{
			"bufferView":3,
			"componentType":5123,
			"count":28476,
			"type":"SCALAR"
		},
		{
			"bufferView":4,
			"componentType":5126,
			"count":1440,
			"max":[
				0.23015856742858887,
				-0.08194422721862793,
				0.14073961973190308
			],
			"min":[
				0.15457749366760254,
				-0.12193179130554199,
				-0.01215611957013607
			],
			"type":"VEC3"
		},
		{
			"bufferView":5,
			"componentType":5126,
			"count":1440,
			"type":"VEC3"
		},
		{
			"bufferView":6,
			"componentType":5126,
			"count":1440,
			"type":"VEC2"
		},
		{
			"bufferView":7,
			"componentType":5123,
			"count":3648,
			"type":"SCALAR"
		},
		{
			"bufferView":8,
			"componentType":5126,
			"count":198,
			"max":[
				0.2217543125152588,
				-0.08194422721862793,
				0.11045365035533905
			],
			"min":[
				0.16298174858093262,
				-0.12193179130554199,
				0.017849046736955643
			],
			"type":"VEC3"
		},
		{
			"bufferView":9,
			"componentType":5126,
			"count":198,
			"type":"VEC3"
		},
		{
			"bufferView":10,
			"componentType":5126,
			"count":198,
			"type":"VEC2"
		},
		{
			"bufferView":11,
			"componentType":5123,
			"count":576,
			"type":"SCALAR"
		},
		{
			"bufferView":12,
			"componentType":5126,
			"count":949,
			"max":[
				0.23012757301330566,
				-0.0821230411529541,
				0.14073961973190308
			],
			"min":[
				0.15497803688049316,
				-0.12175297737121582,
				-0.01243693195283413
			],
			"type":"VEC3"
		},
		{
			"bufferView":13,
			"componentType":5126,
			"count":949,
			"type":"VEC3"
		},
		{
			"bufferView":14,
			"componentType":5126,
			"count":949,
			"type":"VEC2"
		},
		{
			"bufferView":15,
			"componentType":5123,
			"count":2496,
			"type":"SCALAR"
		},
		{
			"bufferView":16,
			"componentType":5126,
			"count":1649,
			"max":[
				0.3337228298187256,
				-0.0162503719329834,
				0.2832655608654022
			],
			"min":[
				0.05101323127746582,
				-0.18762803077697754,
				-0.1549629271030426
			],
			"type":"VEC3"
		},
		{
			"bufferView":17,
			"componentType":5126,
			"count":1649,
			"type":"VEC3"
		},
		{
			"bufferView":18,
			"componentType":5126,
			"count":1649,
			"type":"VEC2"
		},
		{
			"bufferView":19,
			"componentType":5123,
			"count":7272,
			"type":"SCALAR"
		},
		{
			"bufferView":20,
			"componentType":5126,
			"count":18,
			"max":[
				-1.7187498807907104,
				1.7955888509750366,
				3.456965684890747
			],
			"min":[
				-2.75,
				-1.567389965057373,
				-3.458770751953125
			],
			"type":"VEC3"
		},
		{
			"bufferView":21,
			"componentType":5126,
			"count":18,
			"type":"VEC3"
		},
		{
			"bufferView":22,
			"componentType":5126,
			"count":18,
			"type":"VEC2"
		},
		{
			"bufferView":23,
			"componentType":5123,
			"count":48,
			"type":"SCALAR"
		},
		{
			"bufferView":24,
			"componentType":5126,
			"count":719,
			"max":[
				2.75,
				1.7955888509750366,
				3.456965684890747
			],
			"min":[
				-2.75,
				-1.567389965057373,
				-3.458770751953125
			],
			"type":"VEC3"
		},
		{
			"bufferView":25,
			"componentType":5126,
			"count":719,
			"type":"VEC3"
		},
		{
			"bufferView":26,
			"componentType":5123,
			"count":2988,
			"type":"SCALAR"
		}
	],
	"bufferViews":[
		{
			"buffer":0,
			"byteLength":341256,
			"byteOffset":0,
			"target":34962
		},
		{
			"buffer":0,
			"byteLength":341256,
			"byteOffset":341256,
			"target":34962
		},
		{
			"buffer":0,
			"byteLength":227504,
			"byteOffset":682512,
			"target":34962
		},
		{
			"buffer":0,
			"byteLength":56952,
			"byteOffset":910016,
			"target":34963
		},
		{
			"buffer":0,
			"byteLength":17280,
			"byteOffset":966968,
			"target":34962
		},
		{
			"buffer":0,
			"byteLength":17280,
			"byteOffset":984248,
			"target":34962
		},
		{
			"buffer":0,
			"byteLength":11520,
			"byteOffset":1001528,
			"target":34962
		},
		{
			"buffer":0,
			"byteLength":7296,
			"byteOffset":1013048,
			"target":34963
		},
		{
			"buffer":0,
			"byteLength":2376,
			"byteOffset":1020344,
			"target":34962
		},
		{
			"buffer":0,
			"byteLength":2376,
			"byteOffset":1022720,
			"target":34962
		},
		{
			"buffer":0,
			"byteLength":1584,
			"byteOffset":1025096,
			"target":34962
		},
		{
			"buffer":0,
			"byteLength":1152,
			"byteOffset":1026680,
			"target":34963
		},
		{
			"buffer":0,
			"byteLength":11388,
			"byteOffset":1027832,
			"target":34962
		},
		{
			"buffer":0,
			"byteLength":11388,
			"byteOffset":1039220,
			"target":34962
		},
		{
			"buffer":0,
			"byteLength":7592,
			"byteOffset":1050608,
			"target":34962
		},
		{
			"buffer":0,
			"byteLength":4992,
			"byteOffset":1058200,
			"target":34963
		},
		{
			"buffer":0,
			"byteLength":19788,
			"byteOffset":1063192,
			"target":34962
		},
		{
			"buffer":0,
			"byteLength":19788,
			"byteOffset":1082980,
			"target":34962
		},
		{
			"buffer":0,
			"byteLength":13192,
			"byteOffset":1102768,
			"target":34962
		},
		{
			"buffer":0,
			"byteLength":14544,
			"byteOffset":1115960,
			"target":34963
		},
		{
			"buffer":0,
			"byteLength":216,
			"byteOffset":1130504,
			"target":34962
		},
		{
			"buffer":0,
			"byteLength":216,
			"byteOffset":1130720,
			"target":34962
		},
		{
			"buffer":0,
			"byteLength":144,
			"byteOffset":1130936,
			"target":34962
		},
		{
			"buffer":0,
			"byteLength":96,
			"byteOffset":1131080,
			"target":34963
		},
		{
			"buffer":0,
			"byteLength":8628,
			"byteOffset":1131176,
			"target":34962
		},
		{
			"buffer":0,
			"byteLength":8628,
			"byteOffset":1139804,
			"target":34962
		},
		{
			"buffer":0,
			"byteLength":5976,
			"byteOffset":1148432,
			"target":34963
		}
	],
	"samplers":[
		{
			"magFilter":9729,
			"minFilter":9987
		}
	],
	"buffers":[
		{
			"byteLength":1154408,
			"uri":"BeerEdition.bin"
		}
	]
}
