{
	"asset":{
		"generator":"Khronos glTF Blender I/O v4.1.62",
		"version":"2.0"
	},
	"extensionsUsed":[
		"KHR_materials_emissive_strength"
	],
	"scene":0,
	"scenes":[
		{
			"name":"Scene",
			"nodes":[
				0,
				1,
				2,
				3,
				4,
				5,
				6
			]
		}
	],
	"nodes":[
		{
			"mesh":0,
			"name":"Circle",
			"rotation":[
				0.7071068286895752,
				0,
				0,
				0.7071068286895752
			]
		},
		{
			"mesh":1,
			"name":"Circle.001",
			"rotation":[
				0.7071068286895752,
				0,
				0,
				0.7071068286895752
			]
		},
		{
			"mesh":2,
			"name":"Circle.002",
			"rotation":[
				0.7071068286895752,
				0,
				0,
				0.7071068286895752
			]
		},
		{
			"mesh":3,
			"name":"Circle.003",
			"rotation":[
				0.7071068286895752,
				0,
				0,
				0.7071068286895752
			]
		},
		{
			"mesh":4,
			"name":"Cube.001",
			"rotation":[
				0.7071068286895752,
				0,
				0,
				0.7071068286895752
			]
		},
		{
			"mesh":5,
			"name":"Cube.038",
			"rotation":[
				0.7071068286895752,
				0,
				0,
				0.7071068286895752
			]
		},
		{
			"mesh":6,
			"name":"Icosphere.002",
			"rotation":[
				0.7071068286895752,
				0,
				0,
				0.7071068286895752
			]
		}
	],
	"materials":[
		{
			"doubleSided":true,
			"name":"wood",
			"pbrMetallicRoughness":{
				"baseColorTexture":{
					"index":0
				},
				"metallicFactor":0,
				"roughnessFactor":0.5
			}
		},
		{
			"doubleSided":true,
			"name":"Material.042",
			"pbrMetallicRoughness":{
				"baseColorTexture":{
					"index":1
				},
				"metallicFactor":0,
				"roughnessFactor":0.5
			}
		},
		{
			"doubleSided":true,
			"name":"Material.043",
			"pbrMetallicRoughness":{
				"baseColorTexture":{
					"index":2
				},
				"metallicFactor":0,
				"roughnessFactor":0.5
			}
		},
		{
			"doubleSided":true,
			"emissiveFactor":[
				1,
				1,
				1
			],
			"emissiveTexture":{
				"index":3
			},
			"extensions":{
				"KHR_materials_emissive_strength":{
					"emissiveStrength":100
				}
			},
			"name":"Material.040",
			"pbrMetallicRoughness":{
				"baseColorFactor":[
					0.800000011920929,
					0.800000011920929,
					0.800000011920929,
					1
				],
				"metallicFactor":0,
				"roughnessFactor":0.5
			}
		},
		{
			"doubleSided":true,
			"name":"White.002",
			"pbrMetallicRoughness":{
				"baseColorTexture":{
					"index":4
				},
				"metallicFactor":0,
				"roughnessFactor":0.5
			}
		}
	],
	"meshes":[
		{
			"name":"Circle",
			"primitives":[
				{
					"attributes":{
						"POSITION":0,
						"NORMAL":1,
						"TEXCOORD_0":2
					},
					"indices":3,
					"material":0
				}
			]
		},
		{
			"name":"Circle.001",
			"primitives":[
				{
					"attributes":{
						"POSITION":4,
						"NORMAL":5,
						"TEXCOORD_0":6
					},
					"indices":3,
					"material":0
				}
			]
		},
		{
			"name":"Circle.002",
			"primitives":[
				{
					"attributes":{
						"POSITION":7,
						"NORMAL":8,
						"TEXCOORD_0":9
					},
					"indices":10,
					"material":1
				}
			]
		},
		{
			"name":"Circle.003",
			"primitives":[
				{
					"attributes":{
						"POSITION":11,
						"NORMAL":12,
						"TEXCOORD_0":13
					},
					"indices":10,
					"material":2
				}
			]
		},
		{
			"name":"Cube.001",
			"primitives":[
				{
					"attributes":{
						"POSITION":14,
						"NORMAL":15,
						"TEXCOORD_0":16
					},
					"indices":17,
					"material":0
				}
			]
		},
		{
			"name":"Cube.038",
			"primitives":[
				{
					"attributes":{
						"POSITION":18,
						"NORMAL":19,
						"TEXCOORD_0":20
					},
					"indices":21,
					"material":3
				}
			]
		},
		{
			"name":"Icosphere.002",
			"primitives":[
				{
					"attributes":{
						"POSITION":22,
						"NORMAL":23,
						"TEXCOORD_0":24
					},
					"indices":25,
					"material":4
				}
			]
		}
	],
	"textures":[
		{
			"sampler":0,
			"source":0
		},
		{
			"sampler":0,
			"source":1
		},
		{
			"sampler":0,
			"source":2
		},
		{
			"sampler":0,
			"source":3
		},
		{
			"sampler":0,
			"source":4
		}
	],
	"images":[
		{
			"mimeType":"image/jpeg",
			"name":"wood_texture",
			"uri":"wood_texture.jpg"
		},
		{
			"mimeType":"image/jpeg",
			"name":"men_for_ball",
			"uri":"men_for_ball.jpg"
		},
		{
			"mimeType":"image/jpeg",
			"name":"women_for_ball",
			"uri":"women_for_ball.jpg"
		},
		{
			"mimeType":"image/png",
			"name":"red_color",
			"uri":"red_color.png"
		},
		{
			"mimeType":"image/jpeg",
			"name":"Rosy Kisses_thumb_900x900",
			"uri":"Rosy%20Kisses_thumb_900x900.jpg"
		}
	],
	"accessors":[
		{
			"bufferView":0,
			"componentType":5126,
			"count":160,
			"max":[
				0.7555720210075378,
				-5.178707122802734,
				2.8759191036224365
			],
			"min":[
				0.6355710029602051,
				-8.178707122802734,
				-0.12408100068569183
			],
			"type":"VEC3"
		},
		{
			"bufferView":1,
			"componentType":5126,
			"count":160,
			"type":"VEC3"
		},
		{
			"bufferView":2,
			"componentType":5126,
			"count":160,
			"type":"VEC2"
		},
		{
			"bufferView":3,
			"componentType":5123,
			"count":282,
			"type":"SCALAR"
		},
		{
			"bufferView":4,
			"componentType":5126,
			"count":160,
			"max":[
				0.7555720210075378,
				1.061110019683838,
				2.8759191036224365
			],
			"min":[
				0.6355710029602051,
				-1.938889980316162,
				-0.12408100068569183
			],
			"type":"VEC3"
		},
		{
			"bufferView":5,
			"componentType":5126,
			"count":160,
			"type":"VEC3"
		},
		{
			"bufferView":6,
			"componentType":5126,
			"count":160,
			"type":"VEC2"
		},
		{
			"bufferView":7,
			"componentType":5126,
			"count":32,
			"max":[
				0.7555720210075378,
				-5.178707122802734,
				2.8759191036224365
			],
			"min":[
				0.7555710077285767,
				-8.178707122802734,
				-0.12408100068569183
			],
			"type":"VEC3"
		},
		{
			"bufferView":8,
			"componentType":5126,
			"count":32,
			"type":"VEC3"
		},
		{
			"bufferView":9,
			"componentType":5126,
			"count":32,
			"type":"VEC2"
		},
		{
			"bufferView":10,
			"componentType":5123,
			"count":90,
			"type":"SCALAR"
		},
		{
			"bufferView":11,
			"componentType":5126,
			"count":32,
			"max":[
				0.7555720210075378,
				1.061110019683838,
				2.8759191036224365
			],
			"min":[
				0.7555710077285767,
				-1.938889980316162,
				-0.12408100068569183
			],
			"type":"VEC3"
		},
		{
			"bufferView":12,
			"componentType":5126,
			"count":32,
			"type":"VEC3"
		},
		{
			"bufferView":13,
			"componentType":5126,
			"count":32,
			"type":"VEC2"
		},
		{
			"bufferView":14,
			"componentType":5126,
			"count":192,
			"max":[
				0.5994330048561096,
				1.1783699989318848,
				3.5259180068969727
			],
			"min":[
				-6.900567054748535,
				-8.321629524230957,
				-0.7740820050239563
			],
			"type":"VEC3"
		},
		{
			"bufferView":15,
			"componentType":5126,
			"count":192,
			"type":"VEC3"
		},
		{
			"bufferView":16,
			"componentType":5126,
			"count":192,
			"type":"VEC2"
		},
		{
			"bufferView":17,
			"componentType":5123,
			"count":372,
			"type":"SCALAR"
		},
		{
			"bufferView":18,
			"componentType":5126,
			"count":448,
			"max":[
				0.792684018611908,
				-2.050518035888672,
				2.7804150581359863
			],
			"min":[
				0.5994330048561096,
				-5.070682048797607,
				0.019339999184012413
			],
			"type":"VEC3"
		},
		{
			"bufferView":19,
			"componentType":5126,
			"count":448,
			"type":"VEC3"
		},
		{
			"bufferView":20,
			"componentType":5126,
			"count":448,
			"type":"VEC2"
		},
		{
			"bufferView":21,
			"componentType":5123,
			"count":960,
			"type":"SCALAR"
		},
		{
			"bufferView":22,
			"componentType":5126,
			"count":9253,
			"max":[
				0.3755060136318207,
				0.17297400534152985,
				0.8389009833335876
			],
			"min":[
				-6.6244940757751465,
				-6.798666954040527,
				-6.160764217376709
			],
			"type":"VEC3"
		},
		{
			"bufferView":23,
			"componentType":5126,
			"count":9253,
			"type":"VEC3"
		},
		{
			"bufferView":24,
			"componentType":5126,
			"count":9253,
			"type":"VEC2"
		},
		{
			"bufferView":25,
			"componentType":5123,
			"count":46044,
			"type":"SCALAR"
		}
	],
	"bufferViews":[
		{
			"buffer":0,
			"byteLength":1920,
			"byteOffset":0,
			"target":34962
		},
		{
			"buffer":0,
			"byteLength":1920,
			"byteOffset":1920,
			"target":34962
		},
		{
			"buffer":0,
			"byteLength":1280,
			"byteOffset":3840,
			"target":34962
		},
		{
			"buffer":0,
			"byteLength":564,
			"byteOffset":5120,
			"target":34963
		},
		{
			"buffer":0,
			"byteLength":1920,
			"byteOffset":5684,
			"target":34962
		},
		{
			"buffer":0,
			"byteLength":1920,
			"byteOffset":7604,
			"target":34962
		},
		{
			"buffer":0,
			"byteLength":1280,
			"byteOffset":9524,
			"target":34962
		},
		{
			"buffer":0,
			"byteLength":384,
			"byteOffset":10804,
			"target":34962
		},
		{
			"buffer":0,
			"byteLength":384,
			"byteOffset":11188,
			"target":34962
		},
		{
			"buffer":0,
			"byteLength":256,
			"byteOffset":11572,
			"target":34962
		},
		{
			"buffer":0,
			"byteLength":180,
			"byteOffset":11828,
			"target":34963
		},
		{
			"buffer":0,
			"byteLength":384,
			"byteOffset":12008,
			"target":34962
		},
		{
			"buffer":0,
			"byteLength":384,
			"byteOffset":12392,
			"target":34962
		},
		{
			"buffer":0,
			"byteLength":256,
			"byteOffset":12776,
			"target":34962
		},
		{
			"buffer":0,
			"byteLength":2304,
			"byteOffset":13032,
			"target":34962
		},
		{
			"buffer":0,
			"byteLength":2304,
			"byteOffset":15336,
			"target":34962
		},
		{
			"buffer":0,
			"byteLength":1536,
			"byteOffset":17640,
			"target":34962
		},
		{
			"buffer":0,
			"byteLength":744,
			"byteOffset":19176,
			"target":34963
		},
		{
			"buffer":0,
			"byteLength":5376,
			"byteOffset":19920,
			"target":34962
		},
		{
			"buffer":0,
			"byteLength":5376,
			"byteOffset":25296,
			"target":34962
		},
		{
			"buffer":0,
			"byteLength":3584,
			"byteOffset":30672,
			"target":34962
		},
		{
			"buffer":0,
			"byteLength":1920,
			"byteOffset":34256,
			"target":34963
		},
		{
			"buffer":0,
			"byteLength":111036,
			"byteOffset":36176,
			"target":34962
		},
		{
			"buffer":0,
			"byteLength":111036,
			"byteOffset":147212,
			"target":34962
		},
		{
			"buffer":0,
			"byteLength":74024,
			"byteOffset":258248,
			"target":34962
		},
		{
			"buffer":0,
			"byteLength":92088,
			"byteOffset":332272,
			"target":34963
		}
	],
	"samplers":[
		{
			"magFilter":9729,
			"minFilter":9987
		}
	],
	"buffers":[
		{
			"byteLength":424360,
			"uri":"ball_with_people.bin"
		}
	]
}
