{
	"asset":{
		"generator":"Khronos glTF Blender I/O v4.1.62",
		"version":"2.0"
	},
	"extensionsUsed":[
		"KHR_materials_specular",
		"KHR_materials_ior"
	],
	"scene":0,
	"scenes":[
		{
			"name":"Scene",
			"nodes":[
				0,
				1
			]
		}
	],
	"nodes":[
		{
			"mesh":0,
			"name":"another_stand2.003",
			"rotation":[
				0.7071068286895752,
				0,
				0,
				0.7071068286895752
			],
			"translation":[
				-0.3646925389766693,
				0.16732098162174225,
				0.15320241451263428
			]
		},
		{
			"mesh":1,
			"name":"Handle.005",
			"rotation":[
				0.7071068286895752,
				0,
				0,
				0.7071068286895752
			],
			"translation":[
				-0.36173805594444275,
				1.9949548244476318,
				0.18968510627746582
			]
		}
	],
	"materials":[
		{
			"doubleSided":true,
			"name":"Material.017",
			"pbrMetallicRoughness":{
				"baseColorFactor":[
					0.07036100327968597,
					0.07618500292301178,
					0.08865399658679962,
					1
				],
				"metallicFactor":0,
				"roughnessFactor":0.5
			}
		},
		{
			"doubleSided":true,
			"name":"Agnieszka",
			"pbrMetallicRoughness":{
				"baseColorTexture":{
					"index":0
				},
				"metallicFactor":0,
				"roughnessFactor":0.5
			}
		},
		{
			"doubleSided":true,
			"name":"body_color.002",
			"pbrMetallicRoughness":{
				"baseColorFactor":[
					0.49101799726486206,
					0.27889499068260193,
					0.20507900416851044,
					1
				],
				"metallicFactor":0,
				"roughnessFactor":0.5
			}
		},
		{
			"doubleSided":true,
			"name":"Steel_rounded.003",
			"pbrMetallicRoughness":{
				"baseColorFactor":[
					0.5204030275344849,
					0.5204030275344849,
					0.5204030275344849,
					1
				],
				"metallicFactor":0,
				"roughnessFactor":0.5
			}
		},
		{
			"doubleSided":true,
			"name":"Steel_knurled.003",
			"pbrMetallicRoughness":{
				"metallicFactor":0,
				"roughnessFactor":0.5
			}
		},
		{
			"doubleSided":true,
			"name":"Steel_rounded_2.003",
			"pbrMetallicRoughness":{
				"baseColorFactor":[
					0.5204030275344849,
					0.5204030275344849,
					0.5204030275344849,
					1
				],
				"metallicFactor":0,
				"roughnessFactor":0.5
			}
		},
		{
			"doubleSided":true,
			"extensions":{
				"KHR_materials_specular":{
					"specularFactor":0
				},
				"KHR_materials_ior":{
					"ior":1.4500000476837158
				}
			},
			"name":"Rubber_black.003",
			"pbrMetallicRoughness":{
				"baseColorFactor":[
					0.009646999649703503,
					0.009646999649703503,
					0.009646999649703503,
					1
				],
				"metallicFactor":0,
				"roughnessFactor":0.5
			}
		},
		{
			"doubleSided":true,
			"name":"eyebrows.002",
			"pbrMetallicRoughness":{
				"baseColorFactor":[
					0.0295570008456707,
					0.015995999798178673,
					0.011611999943852425,
					1
				],
				"metallicFactor":0,
				"roughnessFactor":0.5
			}
		},
		{
			"doubleSided":true,
			"name":"lips.002",
			"pbrMetallicRoughness":{
				"baseColorFactor":[
					0.7454000115394592,
					0.2195259928703308,
					0.2158609926700592,
					1
				],
				"metallicFactor":0,
				"roughnessFactor":0.5
			}
		},
		{
			"doubleSided":true,
			"name":"Material.011",
			"pbrMetallicRoughness":{
				"baseColorFactor":[
					0.6653839945793152,
					0.30054399371147156,
					0.3419150114059448,
					1
				],
				"metallicFactor":0,
				"roughnessFactor":0.5
			}
		},
		{
			"doubleSided":true,
			"name":"clothes_2.003",
			"pbrMetallicRoughness":{
				"baseColorFactor":[
					0.3324500024318695,
					0.149959996342659,
					0.16202899813652039,
					1
				],
				"metallicFactor":0,
				"roughnessFactor":0.5
			}
		},
		{
			"doubleSided":true,
			"name":"Steel_rounded.006",
			"pbrMetallicRoughness":{
				"baseColorFactor":[
					0.5204030275344849,
					0.5204030275344849,
					0.5204030275344849,
					1
				],
				"metallicFactor":0,
				"roughnessFactor":0.5
			}
		},
		{
			"doubleSided":true,
			"name":"Steel_knurled.006",
			"pbrMetallicRoughness":{
				"metallicFactor":0,
				"roughnessFactor":0.5
			}
		},
		{
			"doubleSided":true,
			"name":"Steel_rounded_2.006",
			"pbrMetallicRoughness":{
				"baseColorFactor":[
					0.5204030275344849,
					0.5204030275344849,
					0.5204030275344849,
					1
				],
				"metallicFactor":0,
				"roughnessFactor":0.5
			}
		},
		{
			"doubleSided":true,
			"extensions":{
				"KHR_materials_specular":{
					"specularFactor":0
				},
				"KHR_materials_ior":{
					"ior":1.4500000476837158
				}
			},
			"name":"Rubber_black.006",
			"pbrMetallicRoughness":{
				"baseColorFactor":[
					0.009646999649703503,
					0.009646999649703503,
					0.009646999649703503,
					1
				],
				"metallicFactor":0,
				"roughnessFactor":0.5
			}
		},
		{
			"doubleSided":true,
			"name":"shoe.001",
			"pbrMetallicRoughness":{
				"baseColorFactor":[
					0,
					0,
					0,
					1
				],
				"metallicFactor":0,
				"roughnessFactor":0.5
			}
		}
	],
	"meshes":[
		{
			"name":"another_stand2.003",
			"primitives":[
				{
					"attributes":{
						"POSITION":0,
						"NORMAL":1,
						"TEXCOORD_0":2
					},
					"indices":3,
					"material":0
				},
				{
					"attributes":{
						"POSITION":4,
						"NORMAL":5,
						"TEXCOORD_0":6
					},
					"indices":7,
					"material":1
				}
			]
		},
		{
			"name":"Handle.005",
			"primitives":[
				{
					"attributes":{
						"POSITION":8,
						"NORMAL":9,
						"TEXCOORD_0":10
					},
					"indices":11,
					"material":2
				},
				{
					"attributes":{
						"POSITION":12,
						"NORMAL":13,
						"TEXCOORD_0":14
					},
					"indices":15,
					"material":3
				},
				{
					"attributes":{
						"POSITION":16,
						"NORMAL":17,
						"TEXCOORD_0":18
					},
					"indices":19,
					"material":4
				},
				{
					"attributes":{
						"POSITION":20,
						"NORMAL":21,
						"TEXCOORD_0":22
					},
					"indices":23,
					"material":5
				},
				{
					"attributes":{
						"POSITION":24,
						"NORMAL":25,
						"TEXCOORD_0":26
					},
					"indices":27,
					"material":6
				},
				{
					"attributes":{
						"POSITION":28,
						"NORMAL":29,
						"TEXCOORD_0":30
					},
					"indices":31,
					"material":7
				},
				{
					"attributes":{
						"POSITION":32,
						"NORMAL":33,
						"TEXCOORD_0":34
					},
					"indices":35,
					"material":8
				},
				{
					"attributes":{
						"POSITION":36,
						"NORMAL":37,
						"TEXCOORD_0":38
					},
					"indices":39,
					"material":9
				},
				{
					"attributes":{
						"POSITION":40,
						"NORMAL":41,
						"TEXCOORD_0":42
					},
					"indices":43,
					"material":10
				},
				{
					"attributes":{
						"POSITION":44,
						"NORMAL":45,
						"TEXCOORD_0":46
					},
					"indices":47,
					"material":11
				},
				{
					"attributes":{
						"POSITION":48,
						"NORMAL":49,
						"TEXCOORD_0":50
					},
					"indices":19,
					"material":12
				},
				{
					"attributes":{
						"POSITION":51,
						"NORMAL":52,
						"TEXCOORD_0":53
					},
					"indices":54,
					"material":13
				},
				{
					"attributes":{
						"POSITION":55,
						"NORMAL":56,
						"TEXCOORD_0":57
					},
					"indices":58,
					"material":14
				},
				{
					"attributes":{
						"POSITION":59,
						"NORMAL":60,
						"TEXCOORD_0":61
					},
					"indices":62,
					"material":15
				}
			]
		}
	],
	"textures":[
		{
			"sampler":0,
			"source":0
		}
	],
	"images":[
		{
			"mimeType":"image/png",
			"name":"Agnieszka(3)",
			"uri":"Agnieszka3.png"
		}
	],
	"accessors":[
		{
			"bufferView":0,
			"componentType":5126,
			"count":1199,
			"max":[
				0.9677410125732422,
				0.7486743927001953,
				0.43943989276885986
			],
			"min":[
				-0.9686660766601562,
				-0.791325569152832,
				-0.5021941065788269
			],
			"type":"VEC3"
		},
		{
			"bufferView":1,
			"componentType":5126,
			"count":1199,
			"type":"VEC3"
		},
		{
			"bufferView":2,
			"componentType":5126,
			"count":1199,
			"type":"VEC2"
		},
		{
			"bufferView":3,
			"componentType":5123,
			"count":2988,
			"type":"SCALAR"
		},
		{
			"bufferView":4,
			"componentType":5126,
			"count":18,
			"max":[
				0.9677371978759766,
				0.7486743927001953,
				0.43943989276885986
			],
			"min":[
				-0.9686679840087891,
				0.45992445945739746,
				-0.5021941065788269
			],
			"type":"VEC3"
		},
		{
			"bufferView":5,
			"componentType":5126,
			"count":18,
			"type":"VEC3"
		},
		{
			"bufferView":6,
			"componentType":5126,
			"count":18,
			"type":"VEC2"
		},
		{
			"bufferView":7,
			"componentType":5123,
			"count":48,
			"type":"SCALAR"
		},
		{
			"bufferView":8,
			"componentType":5126,
			"count":21534,
			"max":[
				0.32097625732421875,
				0.2871236801147461,
				1.338500738143921
			],
			"min":[
				-0.41463470458984375,
				-0.3825373649597168,
				-0.55540931224823
			],
			"type":"VEC3"
		},
		{
			"bufferView":9,
			"componentType":5126,
			"count":21534,
			"type":"VEC3"
		},
		{
			"bufferView":10,
			"componentType":5126,
			"count":21534,
			"type":"VEC2"
		},
		{
			"bufferView":11,
			"componentType":5123,
			"count":22173,
			"type":"SCALAR"
		},
		{
			"bufferView":12,
			"componentType":5126,
			"count":1440,
			"max":[
				0.2506141662597656,
				0.06640958786010742,
				0.18166065216064453
			],
			"min":[
				0.19803237915039062,
				-0.02676832675933838,
				0.1098027229309082
			],
			"type":"VEC3"
		},
		{
			"bufferView":13,
			"componentType":5126,
			"count":1440,
			"type":"VEC3"
		},
		{
			"bufferView":14,
			"componentType":5126,
			"count":1440,
			"type":"VEC2"
		},
		{
			"bufferView":15,
			"componentType":5123,
			"count":3648,
			"type":"SCALAR"
		},
		{
			"bufferView":16,
			"componentType":5126,
			"count":198,
			"max":[
				0.24440383911132812,
				0.049779653549194336,
				0.17101573944091797
			],
			"min":[
				0.2042236328125,
				-0.010238409042358398,
				0.12059569358825684
			],
			"type":"VEC3"
		},
		{
			"bufferView":17,
			"componentType":5126,
			"count":198,
			"type":"VEC3"
		},
		{
			"bufferView":18,
			"componentType":5126,
			"count":198,
			"type":"VEC2"
		},
		{
			"bufferView":19,
			"componentType":5123,
			"count":576,
			"type":"SCALAR"
		},
		{
			"bufferView":20,
			"componentType":5126,
			"count":1056,
			"max":[
				0.2506141662597656,
				0.06640958786010742,
				0.18166065216064453
			],
			"min":[
				0.19823646545410156,
				-0.026868343353271484,
				0.10994970798492432
			],
			"type":"VEC3"
		},
		{
			"bufferView":21,
			"componentType":5126,
			"count":1056,
			"type":"VEC3"
		},
		{
			"bufferView":22,
			"componentType":5126,
			"count":1056,
			"type":"VEC2"
		},
		{
			"bufferView":23,
			"componentType":5123,
			"count":2496,
			"type":"SCALAR"
		},
		{
			"bufferView":24,
			"componentType":5126,
			"count":1649,
			"max":[
				0.31940460205078125,
				0.15644562244415283,
				0.25544166564941406
			],
			"min":[
				0.12922286987304688,
				-0.1169043779373169,
				0.03602170944213867
			],
			"type":"VEC3"
		},
		{
			"bufferView":25,
			"componentType":5126,
			"count":1649,
			"type":"VEC3"
		},
		{
			"bufferView":26,
			"componentType":5126,
			"count":1649,
			"type":"VEC2"
		},
		{
			"bufferView":27,
			"componentType":5123,
			"count":7272,
			"type":"SCALAR"
		},
		{
			"bufferView":28,
			"componentType":5126,
			"count":90,
			"max":[
				0.08930206298828125,
				0.047116637229919434,
				-0.487099289894104
			],
			"min":[
				-0.0074901580810546875,
				0.006519675254821777,
				-0.5129743814468384
			],
			"type":"VEC3"
		},
		{
			"bufferView":29,
			"componentType":5126,
			"count":90,
			"type":"VEC3"
		},
		{
			"bufferView":30,
			"componentType":5126,
			"count":90,
			"type":"VEC2"
		},
		{
			"bufferView":31,
			"componentType":5123,
			"count":156,
			"type":"SCALAR"
		},
		{
			"bufferView":32,
			"componentType":5126,
			"count":61,
			"max":[
				0.0666046142578125,
				0.009070634841918945,
				-0.39779341220855713
			],
			"min":[
				0.00820159912109375,
				-0.017238378524780273,
				-0.420268177986145
			],
			"type":"VEC3"
		},
		{
			"bufferView":33,
			"componentType":5126,
			"count":61,
			"type":"VEC3"
		},
		{
			"bufferView":34,
			"componentType":5126,
			"count":61,
			"type":"VEC2"
		},
		{
			"bufferView":35,
			"componentType":5123,
			"count":87,
			"type":"SCALAR"
		},
		{
			"bufferView":36,
			"componentType":5126,
			"count":5265,
			"max":[
				0.1452465057373047,
				0.08350968360900879,
				-0.11139333248138428
			],
			"min":[
				-0.15769577026367188,
				-0.25587236881256104,
				-0.6629022359848022
			],
			"type":"VEC3"
		},
		{
			"bufferView":37,
			"componentType":5126,
			"count":5265,
			"type":"VEC3"
		},
		{
			"bufferView":38,
			"componentType":5126,
			"count":5265,
			"type":"VEC2"
		},
		{
			"bufferView":39,
			"componentType":5123,
			"count":5277,
			"type":"SCALAR"
		},
		{
			"bufferView":40,
			"componentType":5126,
			"count":2930,
			"max":[
				0.1681652069091797,
				0.15239763259887695,
				0.2833876609802246
			],
			"min":[
				-0.18462371826171875,
				-0.23777836561203003,
				-0.3463393449783325
			],
			"type":"VEC3"
		},
		{
			"bufferView":41,
			"componentType":5126,
			"count":2930,
			"type":"VEC3"
		},
		{
			"bufferView":42,
			"componentType":5126,
			"count":2930,
			"type":"VEC2"
		},
		{
			"bufferView":43,
			"componentType":5123,
			"count":3372,
			"type":"SCALAR"
		},
		{
			"bufferView":44,
			"componentType":5126,
			"count":1440,
			"max":[
				-0.18828392028808594,
				0.1321876049041748,
				-0.46211135387420654
			],
			"min":[
				-0.21441650390625,
				0.03557169437408447,
				-0.48828232288360596
			],
			"type":"VEC3"
		},
		{
			"bufferView":45,
			"componentType":5126,
			"count":1440,
			"type":"VEC3"
		},
		{
			"bufferView":46,
			"componentType":5126,
			"count":1440,
			"type":"VEC2"
		},
		{
			"bufferView":47,
			"componentType":5123,
			"count":3648,
			"type":"SCALAR"
		},
		{
			"bufferView":48,
			"componentType":5126,
			"count":198,
			"max":[
				-0.18828392028808594,
				0.11174869537353516,
				-0.46211135387420654
			],
			"min":[
				-0.21441650390625,
				0.05573558807373047,
				-0.48828232288360596
			],
			"type":"VEC3"
		},
		{
			"bufferView":49,
			"componentType":5126,
			"count":198,
			"type":"VEC3"
		},
		{
			"bufferView":50,
			"componentType":5126,
			"count":198,
			"type":"VEC2"
		},
		{
			"bufferView":51,
			"componentType":5126,
			"count":739,
			"max":[
				-0.18839454650878906,
				0.1322866678237915,
				-0.4622594118118286
			],
			"min":[
				-0.21430587768554688,
				0.03519761562347412,
				-0.4881342649459839
			],
			"type":"VEC3"
		},
		{
			"bufferView":52,
			"componentType":5126,
			"count":739,
			"type":"VEC3"
		},
		{
			"bufferView":53,
			"componentType":5126,
			"count":739,
			"type":"VEC2"
		},
		{
			"bufferView":54,
			"componentType":5123,
			"count":2496,
			"type":"SCALAR"
		},
		{
			"bufferView":55,
			"componentType":5126,
			"count":1649,
			"max":[
				-0.13692092895507812,
				0.2200406789779663,
				-0.41908538341522217
			],
			"min":[
				-0.2657794952392578,
				-0.05255842208862305,
				-0.5311611890792847
			],
			"type":"VEC3"
		},
		{
			"bufferView":56,
			"componentType":5126,
			"count":1649,
			"type":"VEC3"
		},
		{
			"bufferView":57,
			"componentType":5126,
			"count":1649,
			"type":"VEC2"
		},
		{
			"bufferView":58,
			"componentType":5123,
			"count":7272,
			"type":"SCALAR"
		},
		{
			"bufferView":59,
			"componentType":5126,
			"count":2039,
			"max":[
				0.23311233520507812,
				0.0813525915145874,
				1.274329662322998
			],
			"min":[
				-0.2569084167480469,
				-0.2339983582496643,
				1.070286750793457
			],
			"type":"VEC3"
		},
		{
			"bufferView":60,
			"componentType":5126,
			"count":2039,
			"type":"VEC3"
		},
		{
			"bufferView":61,
			"componentType":5126,
			"count":2039,
			"type":"VEC2"
		},
		{
			"bufferView":62,
			"componentType":5123,
			"count":2085,
			"type":"SCALAR"
		}
	],
	"bufferViews":[
		{
			"buffer":0,
			"byteLength":14388,
			"byteOffset":0,
			"target":34962
		},
		{
			"buffer":0,
			"byteLength":14388,
			"byteOffset":14388,
			"target":34962
		},
		{
			"buffer":0,
			"byteLength":9592,
			"byteOffset":28776,
			"target":34962
		},
		{
			"buffer":0,
			"byteLength":5976,
			"byteOffset":38368,
			"target":34963
		},
		{
			"buffer":0,
			"byteLength":216,
			"byteOffset":44344,
			"target":34962
		},
		{
			"buffer":0,
			"byteLength":216,
			"byteOffset":44560,
			"target":34962
		},
		{
			"buffer":0,
			"byteLength":144,
			"byteOffset":44776,
			"target":34962
		},
		{
			"buffer":0,
			"byteLength":96,
			"byteOffset":44920,
			"target":34963
		},
		{
			"buffer":0,
			"byteLength":258408,
			"byteOffset":45016,
			"target":34962
		},
		{
			"buffer":0,
			"byteLength":258408,
			"byteOffset":303424,
			"target":34962
		},
		{
			"buffer":0,
			"byteLength":172272,
			"byteOffset":561832,
			"target":34962
		},
		{
			"buffer":0,
			"byteLength":44346,
			"byteOffset":734104,
			"target":34963
		},
		{
			"buffer":0,
			"byteLength":17280,
			"byteOffset":778452,
			"target":34962
		},
		{
			"buffer":0,
			"byteLength":17280,
			"byteOffset":795732,
			"target":34962
		},
		{
			"buffer":0,
			"byteLength":11520,
			"byteOffset":813012,
			"target":34962
		},
		{
			"buffer":0,
			"byteLength":7296,
			"byteOffset":824532,
			"target":34963
		},
		{
			"buffer":0,
			"byteLength":2376,
			"byteOffset":831828,
			"target":34962
		},
		{
			"buffer":0,
			"byteLength":2376,
			"byteOffset":834204,
			"target":34962
		},
		{
			"buffer":0,
			"byteLength":1584,
			"byteOffset":836580,
			"target":34962
		},
		{
			"buffer":0,
			"byteLength":1152,
			"byteOffset":838164,
			"target":34963
		},
		{
			"buffer":0,
			"byteLength":12672,
			"byteOffset":839316,
			"target":34962
		},
		{
			"buffer":0,
			"byteLength":12672,
			"byteOffset":851988,
			"target":34962
		},
		{
			"buffer":0,
			"byteLength":8448,
			"byteOffset":864660,
			"target":34962
		},
		{
			"buffer":0,
			"byteLength":4992,
			"byteOffset":873108,
			"target":34963
		},
		{
			"buffer":0,
			"byteLength":19788,
			"byteOffset":878100,
			"target":34962
		},
		{
			"buffer":0,
			"byteLength":19788,
			"byteOffset":897888,
			"target":34962
		},
		{
			"buffer":0,
			"byteLength":13192,
			"byteOffset":917676,
			"target":34962
		},
		{
			"buffer":0,
			"byteLength":14544,
			"byteOffset":930868,
			"target":34963
		},
		{
			"buffer":0,
			"byteLength":1080,
			"byteOffset":945412,
			"target":34962
		},
		{
			"buffer":0,
			"byteLength":1080,
			"byteOffset":946492,
			"target":34962
		},
		{
			"buffer":0,
			"byteLength":720,
			"byteOffset":947572,
			"target":34962
		},
		{
			"buffer":0,
			"byteLength":312,
			"byteOffset":948292,
			"target":34963
		},
		{
			"buffer":0,
			"byteLength":732,
			"byteOffset":948604,
			"target":34962
		},
		{
			"buffer":0,
			"byteLength":732,
			"byteOffset":949336,
			"target":34962
		},
		{
			"buffer":0,
			"byteLength":488,
			"byteOffset":950068,
			"target":34962
		},
		{
			"buffer":0,
			"byteLength":174,
			"byteOffset":950556,
			"target":34963
		},
		{
			"buffer":0,
			"byteLength":63180,
			"byteOffset":950732,
			"target":34962
		},
		{
			"buffer":0,
			"byteLength":63180,
			"byteOffset":1013912,
			"target":34962
		},
		{
			"buffer":0,
			"byteLength":42120,
			"byteOffset":1077092,
			"target":34962
		},
		{
			"buffer":0,
			"byteLength":10554,
			"byteOffset":1119212,
			"target":34963
		},
		{
			"buffer":0,
			"byteLength":35160,
			"byteOffset":1129768,
			"target":34962
		},
		{
			"buffer":0,
			"byteLength":35160,
			"byteOffset":1164928,
			"target":34962
		},
		{
			"buffer":0,
			"byteLength":23440,
			"byteOffset":1200088,
			"target":34962
		},
		{
			"buffer":0,
			"byteLength":6744,
			"byteOffset":1223528,
			"target":34963
		},
		{
			"buffer":0,
			"byteLength":17280,
			"byteOffset":1230272,
			"target":34962
		},
		{
			"buffer":0,
			"byteLength":17280,
			"byteOffset":1247552,
			"target":34962
		},
		{
			"buffer":0,
			"byteLength":11520,
			"byteOffset":1264832,
			"target":34962
		},
		{
			"buffer":0,
			"byteLength":7296,
			"byteOffset":1276352,
			"target":34963
		},
		{
			"buffer":0,
			"byteLength":2376,
			"byteOffset":1283648,
			"target":34962
		},
		{
			"buffer":0,
			"byteLength":2376,
			"byteOffset":1286024,
			"target":34962
		},
		{
			"buffer":0,
			"byteLength":1584,
			"byteOffset":1288400,
			"target":34962
		},
		{
			"buffer":0,
			"byteLength":8868,
			"byteOffset":1289984,
			"target":34962
		},
		{
			"buffer":0,
			"byteLength":8868,
			"byteOffset":1298852,
			"target":34962
		},
		{
			"buffer":0,
			"byteLength":5912,
			"byteOffset":1307720,
			"target":34962
		},
		{
			"buffer":0,
			"byteLength":4992,
			"byteOffset":1313632,
			"target":34963
		},
		{
			"buffer":0,
			"byteLength":19788,
			"byteOffset":1318624,
			"target":34962
		},
		{
			"buffer":0,
			"byteLength":19788,
			"byteOffset":1338412,
			"target":34962
		},
		{
			"buffer":0,
			"byteLength":13192,
			"byteOffset":1358200,
			"target":34962
		},
		{
			"buffer":0,
			"byteLength":14544,
			"byteOffset":1371392,
			"target":34963
		},
		{
			"buffer":0,
			"byteLength":24468,
			"byteOffset":1385936,
			"target":34962
		},
		{
			"buffer":0,
			"byteLength":24468,
			"byteOffset":1410404,
			"target":34962
		},
		{
			"buffer":0,
			"byteLength":16312,
			"byteOffset":1434872,
			"target":34962
		},
		{
			"buffer":0,
			"byteLength":4170,
			"byteOffset":1451184,
			"target":34963
		}
	],
	"samplers":[
		{
			"magFilter":9729,
			"minFilter":9987
		}
	],
	"buffers":[
		{
			"byteLength":1455356,
			"uri":"pink.bin"
		}
	]
}
