{
	"asset":{
		"generator":"Khronos glTF Blender I/O v4.1.62",
		"version":"2.0"
	},
	"scene":0,
	"scenes":[
		{
			"name":"Scene",
			"nodes":[
				0
			]
		}
	],
	"nodes":[
		{
			"mesh":0,
			"name":"another_stand2.005",
			"rotation":[
				0.7071068286895752,
				0,
				0,
				0.7071068286895752
			],
			"translation":[
				-0.3102703094482422,
				0.18362663686275482,
				0.6020703315734863
			]
		}
	],
	"materials":[
		{
			"doubleSided":true,
			"name":"Material.019",
			"pbrMetallicRoughness":{
				"baseColorTexture":{
					"index":0
				},
				"metallicFactor":0,
				"roughnessFactor":0.5
			}
		},
		{
			"doubleSided":true,
			"name":"Material.018",
			"pbrMetallicRoughness":{
				"baseColorFactor":[
					0.07036100327968597,
					0.07618500292301178,
					0.08865399658679962,
					1
				],
				"metallicFactor":0,
				"roughnessFactor":0.5
			}
		},
		{
			"doubleSided":true,
			"name":"Material.012",
			"pbrMetallicRoughness":{
				"baseColorFactor":[
					0.4677810072898865,
					0.3371640145778656,
					0.1811639964580536,
					1
				],
				"metallicFactor":0,
				"roughnessFactor":0.5
			}
		},
		{
			"doubleSided":true,
			"name":"clothes_3.002",
			"pbrMetallicRoughness":{
				"baseColorFactor":[
					0.4286879897117615,
					0.37123799324035645,
					0.3324519991874695,
					1
				],
				"metallicFactor":0,
				"roughnessFactor":0.5
			}
		},
		{
			"doubleSided":true,
			"name":"body_color.001",
			"pbrMetallicRoughness":{
				"baseColorFactor":[
					0.49101799726486206,
					0.27889499068260193,
					0.20507900416851044,
					1
				],
				"metallicFactor":0,
				"roughnessFactor":0.5
			}
		},
		{
			"doubleSided":true,
			"name":"lips.001",
			"pbrMetallicRoughness":{
				"baseColorFactor":[
					0.7454000115394592,
					0.2195259928703308,
					0.2158609926700592,
					1
				],
				"metallicFactor":0,
				"roughnessFactor":0.5
			}
		},
		{
			"doubleSided":true,
			"name":"eyebrows.001",
			"pbrMetallicRoughness":{
				"baseColorFactor":[
					0.0295570008456707,
					0.015995999798178673,
					0.011611999943852425,
					1
				],
				"metallicFactor":0,
				"roughnessFactor":0.5
			}
		}
	],
	"meshes":[
		{
			"name":"another_stand2.005",
			"primitives":[
				{
					"attributes":{
						"POSITION":0,
						"NORMAL":1,
						"TEXCOORD_0":2
					},
					"indices":3,
					"material":0
				},
				{
					"attributes":{
						"POSITION":4,
						"NORMAL":5,
						"TEXCOORD_0":6
					},
					"indices":7,
					"material":1
				},
				{
					"attributes":{
						"POSITION":8,
						"NORMAL":9,
						"TEXCOORD_0":10
					},
					"indices":11,
					"material":2
				},
				{
					"attributes":{
						"POSITION":12,
						"NORMAL":13,
						"TEXCOORD_0":14
					},
					"indices":15,
					"material":3
				},
				{
					"attributes":{
						"POSITION":16,
						"NORMAL":17,
						"TEXCOORD_0":18
					},
					"indices":19,
					"material":4
				},
				{
					"attributes":{
						"POSITION":20,
						"NORMAL":21,
						"TEXCOORD_0":22
					},
					"indices":23,
					"material":5
				},
				{
					"attributes":{
						"POSITION":24,
						"NORMAL":25,
						"TEXCOORD_0":26
					},
					"indices":27,
					"material":6
				}
			]
		}
	],
	"textures":[
		{
			"sampler":0,
			"source":0
		}
	],
	"images":[
		{
			"mimeType":"image/png",
			"name":"Zosia",
			"uri":"Zosia.png"
		}
	],
	"accessors":[
		{
			"bufferView":0,
			"componentType":5126,
			"count":18,
			"max":[
				0.9611701965332031,
				0.1397181749343872,
				0.45574548840522766
			],
			"min":[
				-0.9752368927001953,
				-0.14903175830841064,
				-0.4858885109424591
			],
			"type":"VEC3"
		},
		{
			"bufferView":1,
			"componentType":5126,
			"count":18,
			"type":"VEC3"
		},
		{
			"bufferView":2,
			"componentType":5126,
			"count":18,
			"type":"VEC2"
		},
		{
			"bufferView":3,
			"componentType":5123,
			"count":48,
			"type":"SCALAR"
		},
		{
			"bufferView":4,
			"componentType":5126,
			"count":881,
			"max":[
				0.9611701965332031,
				0.1397181749343872,
				0.45574548840522766
			],
			"min":[
				-0.9752368927001953,
				-1.4002817869186401,
				-0.4858885407447815
			],
			"type":"VEC3"
		},
		{
			"bufferView":5,
			"componentType":5126,
			"count":881,
			"type":"VEC3"
		},
		{
			"bufferView":6,
			"componentType":5126,
			"count":881,
			"type":"VEC2"
		},
		{
			"bufferView":7,
			"componentType":5123,
			"count":2988,
			"type":"SCALAR"
		},
		{
			"bufferView":8,
			"componentType":5126,
			"count":5456,
			"max":[
				0.009304046630859375,
				-0.2809758186340332,
				-2.0261383056640625
			],
			"min":[
				-0.3424110412597656,
				-0.660976767539978,
				-2.486398220062256
			],
			"type":"VEC3"
		},
		{
			"bufferView":9,
			"componentType":5126,
			"count":5456,
			"type":"VEC3"
		},
		{
			"bufferView":10,
			"componentType":5126,
			"count":5456,
			"type":"VEC2"
		},
		{
			"bufferView":11,
			"componentType":5123,
			"count":5460,
			"type":"SCALAR"
		},
		{
			"bufferView":12,
			"componentType":5126,
			"count":2794,
			"max":[
				0.05195808410644531,
				-0.24783575534820557,
				-1.4716582298278809
			],
			"min":[
				-0.32614707946777344,
				-0.637543797492981,
				-2.138683319091797
			],
			"type":"VEC3"
		},
		{
			"bufferView":13,
			"componentType":5126,
			"count":2794,
			"type":"VEC3"
		},
		{
			"bufferView":14,
			"componentType":5126,
			"count":2794,
			"type":"VEC2"
		},
		{
			"bufferView":15,
			"componentType":5123,
			"count":3111,
			"type":"SCALAR"
		},
		{
			"bufferView":16,
			"componentType":5126,
			"count":23034,
			"max":[
				0.2691764831542969,
				-0.2733438014984131,
				-0.4846283197402954
			],
			"min":[
				-0.4462165832519531,
				-0.7397518157958984,
				-2.483748435974121
			],
			"type":"VEC3"
		},
		{
			"bufferView":17,
			"componentType":5126,
			"count":23034,
			"type":"VEC3"
		},
		{
			"bufferView":18,
			"componentType":5126,
			"count":23034,
			"type":"VEC2"
		},
		{
			"bufferView":19,
			"componentType":5123,
			"count":23484,
			"type":"SCALAR"
		},
		{
			"bufferView":20,
			"componentType":5126,
			"count":78,
			"max":[
				-0.061412811279296875,
				-0.3423588275909424,
				-2.2084922790527344
			],
			"min":[
				-0.1263904571533203,
				-0.3831087350845337,
				-2.2310142517089844
			],
			"type":"VEC3"
		},
		{
			"bufferView":21,
			"componentType":5126,
			"count":78,
			"type":"VEC3"
		},
		{
			"bufferView":22,
			"componentType":5126,
			"count":78,
			"type":"VEC2"
		},
		{
			"bufferView":23,
			"componentType":5123,
			"count":102,
			"type":"SCALAR"
		},
		{
			"bufferView":24,
			"componentType":5126,
			"count":96,
			"max":[
				-0.03709602355957031,
				-0.3145427703857422,
				-2.3008384704589844
			],
			"min":[
				-0.15138626098632812,
				-0.37061381340026855,
				-2.339250087738037
			],
			"type":"VEC3"
		},
		{
			"bufferView":25,
			"componentType":5126,
			"count":96,
			"type":"VEC3"
		},
		{
			"bufferView":26,
			"componentType":5126,
			"count":96,
			"type":"VEC2"
		},
		{
			"bufferView":27,
			"componentType":5123,
			"count":168,
			"type":"SCALAR"
		}
	],
	"bufferViews":[
		{
			"buffer":0,
			"byteLength":216,
			"byteOffset":0,
			"target":34962
		},
		{
			"buffer":0,
			"byteLength":216,
			"byteOffset":216,
			"target":34962
		},
		{
			"buffer":0,
			"byteLength":144,
			"byteOffset":432,
			"target":34962
		},
		{
			"buffer":0,
			"byteLength":96,
			"byteOffset":576,
			"target":34963
		},
		{
			"buffer":0,
			"byteLength":10572,
			"byteOffset":672,
			"target":34962
		},
		{
			"buffer":0,
			"byteLength":10572,
			"byteOffset":11244,
			"target":34962
		},
		{
			"buffer":0,
			"byteLength":7048,
			"byteOffset":21816,
			"target":34962
		},
		{
			"buffer":0,
			"byteLength":5976,
			"byteOffset":28864,
			"target":34963
		},
		{
			"buffer":0,
			"byteLength":65472,
			"byteOffset":34840,
			"target":34962
		},
		{
			"buffer":0,
			"byteLength":65472,
			"byteOffset":100312,
			"target":34962
		},
		{
			"buffer":0,
			"byteLength":43648,
			"byteOffset":165784,
			"target":34962
		},
		{
			"buffer":0,
			"byteLength":10920,
			"byteOffset":209432,
			"target":34963
		},
		{
			"buffer":0,
			"byteLength":33528,
			"byteOffset":220352,
			"target":34962
		},
		{
			"buffer":0,
			"byteLength":33528,
			"byteOffset":253880,
			"target":34962
		},
		{
			"buffer":0,
			"byteLength":22352,
			"byteOffset":287408,
			"target":34962
		},
		{
			"buffer":0,
			"byteLength":6222,
			"byteOffset":309760,
			"target":34963
		},
		{
			"buffer":0,
			"byteLength":276408,
			"byteOffset":315984,
			"target":34962
		},
		{
			"buffer":0,
			"byteLength":276408,
			"byteOffset":592392,
			"target":34962
		},
		{
			"buffer":0,
			"byteLength":184272,
			"byteOffset":868800,
			"target":34962
		},
		{
			"buffer":0,
			"byteLength":46968,
			"byteOffset":1053072,
			"target":34963
		},
		{
			"buffer":0,
			"byteLength":936,
			"byteOffset":1100040,
			"target":34962
		},
		{
			"buffer":0,
			"byteLength":936,
			"byteOffset":1100976,
			"target":34962
		},
		{
			"buffer":0,
			"byteLength":624,
			"byteOffset":1101912,
			"target":34962
		},
		{
			"buffer":0,
			"byteLength":204,
			"byteOffset":1102536,
			"target":34963
		},
		{
			"buffer":0,
			"byteLength":1152,
			"byteOffset":1102740,
			"target":34962
		},
		{
			"buffer":0,
			"byteLength":1152,
			"byteOffset":1103892,
			"target":34962
		},
		{
			"buffer":0,
			"byteLength":768,
			"byteOffset":1105044,
			"target":34962
		},
		{
			"buffer":0,
			"byteLength":336,
			"byteOffset":1105812,
			"target":34963
		}
	],
	"samplers":[
		{
			"magFilter":9729,
			"minFilter":9987
		}
	],
	"buffers":[
		{
			"byteLength":1106148,
			"uri":"blond.bin"
		}
	]
}
