{
	"asset":{
		"generator":"Khronos glTF Blender I/O v4.1.62",
		"version":"2.0"
	},
	"scene":0,
	"scenes":[
		{
			"name":"Scene",
			"nodes":[
				0,
				1,
				2,
				3,
				4,
				5,
				6
			]
		}
	],
	"nodes":[
		{
			"mesh":0,
			"name":"Plane.002",
			"rotation":[
				0.7071068286895752,
				0,
				0,
				0.7071068286895752
			]
		},
		{
			"mesh":1,
			"name":"Text",
			"rotation":[
				0.42060327529907227,
				-0.5684126019477844,
				0.4206032156944275,
				0.5684126615524292
			],
			"scale":[
				12.4791259765625,
				12.4791259765625,
				12.4791259765625
			],
			"translation":[
				-22.98304557800293,
				0,
				0.9271581172943115
			]
		},
		{
			"mesh":2,
			"name":"Arnold_Schwarzenegger_1.001",
			"rotation":[
				0.7071068286895752,
				0,
				0,
				0.7071068286895752
			],
			"translation":[
				-0.39843082427978516,
				83.37187957763672,
				-4.6716437339782715
			]
		},
		{
			"mesh":3,
			"name":"Arnold_Schwarzenegger_1.002",
			"rotation":[
				0.7071068286895752,
				0,
				0,
				0.7071068286895752
			],
			"translation":[
				2.1719350814819336,
				117.62409973144531,
				-6.407202243804932
			]
		},
		{
			"mesh":4,
			"name":"Arnold_Schwarzenegger_1.003",
			"rotation":[
				0.7071068286895752,
				0,
				0,
				0.7071068286895752
			],
			"translation":[
				-2.74453067779541,
				118.73252868652344,
				-1.371284008026123
			]
		},
		{
			"mesh":5,
			"name":"Arnold_Schwarzenegger_1.004",
			"rotation":[
				0.7071068286895752,
				0,
				0,
				0.7071068286895752
			],
			"translation":[
				-1.4915781021118164,
				118.93638610839844,
				-5.102052211761475
			]
		},
		{
			"mesh":6,
			"name":"Arnold_Schwarzenegger_1.006",
			"rotation":[
				0.7071068286895752,
				0,
				0,
				0.7071068286895752
			],
			"scale":[
				1.0099999904632568,
				1.0099999904632568,
				1.0099999904632568
			],
			"translation":[
				-2.831639289855957,
				75.9168701171875,
				-5.027740955352783
			]
		}
	],
	"materials":[
		{
			"doubleSided":true,
			"name":"metal",
			"pbrMetallicRoughness":{
				"baseColorFactor":[
					1,
					1,
					1,
					160
				],
				"baseColorTexture":{
					"index":0
				},
				"roughnessFactor":0.4000000059604645
			}
		},
		{
			"doubleSided":true,
			"name":"Material.001",
			"pbrMetallicRoughness":{
				"baseColorFactor":[
					0.868267834186554,
					1,
					0.9525682330131531,
					1
				],
				"metallicFactor":0,
				"roughnessFactor":0.5
			}
		},
		{
			"doubleSided":true,
			"name":"Material",
			"pbrMetallicRoughness":{
				"baseColorFactor":[
					1,
					0.7083770036697388,
					0.41254299879074097,
					1
				],
				"metallicFactor":0,
				"roughnessFactor":0.5
			}
		},
		{
			"doubleSided":true,
			"name":"hair",
			"pbrMetallicRoughness":{
				"baseColorFactor":[
					0.13013599812984467,
					0.05612900108098984,
					0.015208999626338482,
					1
				],
				"metallicFactor":0,
				"roughnessFactor":0.5
			}
		},
		{
			"doubleSided":true,
			"name":"Material.004",
			"pbrMetallicRoughness":{
				"baseColorFactor":[
					0,
					0,
					0,
					1
				],
				"metallicFactor":0,
				"roughnessFactor":0.5
			}
		},
		{
			"doubleSided":true,
			"name":"Material.002",
			"pbrMetallicRoughness":{
				"baseColorFactor":[
					0.01707400009036064,
					0.01707400009036064,
					0.01707400009036064,
					1
				],
				"metallicFactor":0,
				"roughnessFactor":0.5
			}
		}
	],
	"meshes":[
		{
			"name":"Plane.002",
			"primitives":[
				{
					"attributes":{
						"POSITION":0,
						"NORMAL":1,
						"TEXCOORD_0":2
					},
					"indices":3,
					"material":0
				}
			]
		},
		{
			"name":"Text",
			"primitives":[
				{
					"attributes":{
						"POSITION":4,
						"NORMAL":5,
						"TEXCOORD_0":6
					},
					"indices":7,
					"material":1
				}
			]
		},
		{
			"name":"Arnold_Schwarzenegger_1.001",
			"primitives":[
				{
					"attributes":{
						"POSITION":8,
						"NORMAL":9,
						"TEXCOORD_0":10
					},
					"indices":11,
					"material":2
				}
			]
		},
		{
			"name":"Arnold_Schwarzenegger_1.002",
			"primitives":[
				{
					"attributes":{
						"POSITION":12,
						"NORMAL":13,
						"TEXCOORD_0":14
					},
					"indices":15,
					"material":3
				}
			]
		},
		{
			"name":"Arnold_Schwarzenegger_1.003",
			"primitives":[
				{
					"attributes":{
						"POSITION":16,
						"NORMAL":17,
						"TEXCOORD_0":18
					},
					"indices":19,
					"material":4
				}
			]
		},
		{
			"name":"Arnold_Schwarzenegger_1.004",
			"primitives":[
				{
					"attributes":{
						"POSITION":20,
						"NORMAL":21,
						"TEXCOORD_0":22
					},
					"indices":23,
					"material":3
				}
			]
		},
		{
			"name":"Arnold_Schwarzenegger_1.006",
			"primitives":[
				{
					"attributes":{
						"POSITION":24,
						"NORMAL":25,
						"TEXCOORD_0":26
					},
					"indices":27,
					"material":5
				}
			]
		}
	],
	"textures":[
		{
			"sampler":0,
			"source":0
		}
	],
	"images":[
		{
			"mimeType":"image/jpeg",
			"name":"wood_texture2",
			"uri":"wood_texture2.jpg"
		}
	],
	"accessors":[
		{
			"bufferView":0,
			"componentType":5126,
			"count":638,
			"max":[
				27.5,
				34.56965637207031,
				15.673896789550781
			],
			"min":[
				-27.5,
				-34.58770751953125,
				-17.955886840820312
			],
			"type":"VEC3"
		},
		{
			"bufferView":1,
			"componentType":5126,
			"count":638,
			"type":"VEC3"
		},
		{
			"bufferView":2,
			"componentType":5126,
			"count":638,
			"type":"VEC2"
		},
		{
			"bufferView":3,
			"componentType":5123,
			"count":3036,
			"type":"SCALAR"
		},
		{
			"bufferView":4,
			"componentType":5126,
			"count":527,
			"max":[
				1.563500165939331,
				0,
				0.34550002217292786
			],
			"min":[
				-1.5635000467300415,
				0,
				-0.34550002217292786
			],
			"type":"VEC3"
		},
		{
			"bufferView":5,
			"componentType":5126,
			"count":527,
			"type":"VEC3"
		},
		{
			"bufferView":6,
			"componentType":5126,
			"count":527,
			"type":"VEC2"
		},
		{
			"bufferView":7,
			"componentType":5123,
			"count":1557,
			"type":"SCALAR"
		},
		{
			"bufferView":8,
			"componentType":5126,
			"count":577365,
			"max":[
				12.819339752197266,
				20.414356231689453,
				66.57588195800781
			],
			"min":[
				-13.950826644897461,
				-29.484453201293945,
				-45.45476531982422
			],
			"type":"VEC3"
		},
		{
			"bufferView":9,
			"componentType":5126,
			"count":577365,
			"type":"VEC3"
		},
		{
			"bufferView":10,
			"componentType":5126,
			"count":577365,
			"type":"VEC2"
		},
		{
			"bufferView":11,
			"componentType":5125,
			"count":1338120,
			"type":"SCALAR"
		},
		{
			"bufferView":12,
			"componentType":5126,
			"count":52825,
			"max":[
				6.026134490966797,
				7.019146919250488,
				8.088134765625
			],
			"min":[
				-6.591464996337891,
				-4.989985466003418,
				-7.207427978515625
			],
			"type":"VEC3"
		},
		{
			"bufferView":13,
			"componentType":5126,
			"count":52825,
			"type":"VEC3"
		},
		{
			"bufferView":14,
			"componentType":5126,
			"count":52825,
			"type":"VEC2"
		},
		{
			"bufferView":15,
			"componentType":5123,
			"count":120657,
			"type":"SCALAR"
		},
		{
			"bufferView":16,
			"componentType":5126,
			"count":47,
			"max":[
				1.6293067932128906,
				1.8378009796142578,
				0.514617919921875
			],
			"min":[
				-1.330780029296875,
				-1.5980958938598633,
				-0.552032470703125
			],
			"type":"VEC3"
		},
		{
			"bufferView":17,
			"componentType":5126,
			"count":47,
			"type":"VEC3"
		},
		{
			"bufferView":18,
			"componentType":5126,
			"count":47,
			"type":"VEC2"
		},
		{
			"bufferView":19,
			"componentType":5123,
			"count":72,
			"type":"SCALAR"
		},
		{
			"bufferView":20,
			"componentType":5126,
			"count":1280,
			"max":[
				8.846355438232422,
				4.88864278793335,
				7.231864929199219
			],
			"min":[
				-2.6309356689453125,
				-4.269152641296387,
				-4.7093048095703125
			],
			"type":"VEC3"
		},
		{
			"bufferView":21,
			"componentType":5126,
			"count":1280,
			"type":"VEC3"
		},
		{
			"bufferView":22,
			"componentType":5126,
			"count":1280,
			"type":"VEC2"
		},
		{
			"bufferView":23,
			"componentType":5123,
			"count":2331,
			"type":"SCALAR"
		},
		{
			"bufferView":24,
			"componentType":5126,
			"count":102272,
			"max":[
				8.098674774169922,
				10.691943168640137,
				8.196617126464844
			],
			"min":[
				-9.804279327392578,
				-10.845258712768555,
				-6.267524719238281
			],
			"type":"VEC3"
		},
		{
			"bufferView":25,
			"componentType":5126,
			"count":102272,
			"type":"VEC3"
		},
		{
			"bufferView":26,
			"componentType":5126,
			"count":102272,
			"type":"VEC2"
		},
		{
			"bufferView":27,
			"componentType":5125,
			"count":246276,
			"type":"SCALAR"
		}
	],
	"bufferViews":[
		{
			"buffer":0,
			"byteLength":7656,
			"byteOffset":0,
			"target":34962
		},
		{
			"buffer":0,
			"byteLength":7656,
			"byteOffset":7656,
			"target":34962
		},
		{
			"buffer":0,
			"byteLength":5104,
			"byteOffset":15312,
			"target":34962
		},
		{
			"buffer":0,
			"byteLength":6072,
			"byteOffset":20416,
			"target":34963
		},
		{
			"buffer":0,
			"byteLength":6324,
			"byteOffset":26488,
			"target":34962
		},
		{
			"buffer":0,
			"byteLength":6324,
			"byteOffset":32812,
			"target":34962
		},
		{
			"buffer":0,
			"byteLength":4216,
			"byteOffset":39136,
			"target":34962
		},
		{
			"buffer":0,
			"byteLength":3114,
			"byteOffset":43352,
			"target":34963
		},
		{
			"buffer":0,
			"byteLength":6928380,
			"byteOffset":46468,
			"target":34962
		},
		{
			"buffer":0,
			"byteLength":6928380,
			"byteOffset":6974848,
			"target":34962
		},
		{
			"buffer":0,
			"byteLength":4618920,
			"byteOffset":13903228,
			"target":34962
		},
		{
			"buffer":0,
			"byteLength":5352480,
			"byteOffset":18522148,
			"target":34963
		},
		{
			"buffer":0,
			"byteLength":633900,
			"byteOffset":23874628,
			"target":34962
		},
		{
			"buffer":0,
			"byteLength":633900,
			"byteOffset":24508528,
			"target":34962
		},
		{
			"buffer":0,
			"byteLength":422600,
			"byteOffset":25142428,
			"target":34962
		},
		{
			"buffer":0,
			"byteLength":241314,
			"byteOffset":25565028,
			"target":34963
		},
		{
			"buffer":0,
			"byteLength":564,
			"byteOffset":25806344,
			"target":34962
		},
		{
			"buffer":0,
			"byteLength":564,
			"byteOffset":25806908,
			"target":34962
		},
		{
			"buffer":0,
			"byteLength":376,
			"byteOffset":25807472,
			"target":34962
		},
		{
			"buffer":0,
			"byteLength":144,
			"byteOffset":25807848,
			"target":34963
		},
		{
			"buffer":0,
			"byteLength":15360,
			"byteOffset":25807992,
			"target":34962
		},
		{
			"buffer":0,
			"byteLength":15360,
			"byteOffset":25823352,
			"target":34962
		},
		{
			"buffer":0,
			"byteLength":10240,
			"byteOffset":25838712,
			"target":34962
		},
		{
			"buffer":0,
			"byteLength":4662,
			"byteOffset":25848952,
			"target":34963
		},
		{
			"buffer":0,
			"byteLength":1227264,
			"byteOffset":25853616,
			"target":34962
		},
		{
			"buffer":0,
			"byteLength":1227264,
			"byteOffset":27080880,
			"target":34962
		},
		{
			"buffer":0,
			"byteLength":818176,
			"byteOffset":28308144,
			"target":34962
		},
		{
			"buffer":0,
			"byteLength":985104,
			"byteOffset":29126320,
			"target":34963
		}
	],
	"samplers":[
		{
			"magFilter":9729,
			"minFilter":9987
		}
	],
	"buffers":[
		{
			"byteLength":30111424,
			"uri":"another_stand.bin"
		}
	]
}
