{
	"asset":{
		"generator":"Khronos glTF Blender I/O v4.1.62",
		"version":"2.0"
	},
	"scene":0,
	"scenes":[
		{
			"name":"Scene",
			"nodes":[
				0,
				1,
				2
			]
		}
	],
	"nodes":[
		{
			"mesh":0,
			"name":"another_stand2",
			"rotation":[
				0.7071068286895752,
				0,
				0,
				0.7071068286895752
			],
			"translation":[
				0.06331825256347656,
				0.1667499542236328,
				1.1627202033996582
			]
		},
		{
			"mesh":1,
			"name":"another_stand2.001",
			"rotation":[
				0.7071068286895752,
				0,
				0,
				0.7071068286895752
			],
			"translation":[
				0.07008552551269531,
				0.18362663686275482,
				1.7930017709732056
			]
		},
		{
			"mesh":2,
			"name":"Highly_detailed_3D_mo_0522183036_texture.009",
			"rotation":[
				0.7071068286895752,
				0,
				0,
				0.7071068286895752
			],
			"translation":[
				-0.012674331665039062,
				1.8988797664642334,
				1.2320516109466553
			]
		}
	],
	"materials":[
		{
			"doubleSided":true,
			"name":"Material.013",
			"pbrMetallicRoughness":{
				"baseColorFactor":[
					0.07036100327968597,
					0.07618500292301178,
					0.08865399658679962,
					1
				],
				"metallicFactor":0,
				"roughnessFactor":0.5
			}
		},
		{
			"doubleSided":true,
			"name":"Ewa",
			"pbrMetallicRoughness":{
				"baseColorTexture":{
					"index":0
				},
				"metallicFactor":0,
				"roughnessFactor":0.5
			}
		},
		{
			"doubleSided":true,
			"name":"clothes_1.002",
			"pbrMetallicRoughness":{
				"baseColorFactor":[
					0.08437599986791611,
					0.08021999895572662,
					0.078186996281147,
					1
				],
				"metallicFactor":0,
				"roughnessFactor":0.5
			}
		},
		{
			"doubleSided":true,
			"name":"body_color.003",
			"pbrMetallicRoughness":{
				"baseColorFactor":[
					0.49101799726486206,
					0.27889499068260193,
					0.20507900416851044,
					1
				],
				"metallicFactor":0,
				"roughnessFactor":0.5
			}
		},
		{
			"doubleSided":true,
			"name":"lips.003",
			"pbrMetallicRoughness":{
				"baseColorFactor":[
					0.7454000115394592,
					0.2195259928703308,
					0.2158609926700592,
					1
				],
				"metallicFactor":0,
				"roughnessFactor":0.5
			}
		},
		{
			"doubleSided":true,
			"name":"eyebrows.003",
			"pbrMetallicRoughness":{
				"baseColorFactor":[
					0.0295570008456707,
					0.015995999798178673,
					0.011611999943852425,
					1
				],
				"metallicFactor":0,
				"roughnessFactor":0.5
			}
		},
		{
			"doubleSided":true,
			"name":"hair_1.002",
			"pbrMetallicRoughness":{
				"baseColorFactor":[
					0.08437599986791611,
					0.051270000636577606,
					0.028426000848412514,
					1
				],
				"metallicFactor":0,
				"roughnessFactor":0.5
			}
		}
	],
	"meshes":[
		{
			"name":"another_stand2",
			"primitives":[
				{
					"attributes":{
						"POSITION":0,
						"NORMAL":1
					},
					"indices":2,
					"material":0
				}
			]
		},
		{
			"name":"another_stand2.001",
			"primitives":[
				{
					"attributes":{
						"POSITION":3,
						"NORMAL":4,
						"TEXCOORD_0":5
					},
					"indices":6,
					"material":1
				}
			]
		},
		{
			"name":"Highly_detailed_3D_mo_0522183036_texture.009",
			"primitives":[
				{
					"attributes":{
						"POSITION":7,
						"NORMAL":8,
						"TEXCOORD_0":9
					},
					"indices":10,
					"material":2
				},
				{
					"attributes":{
						"POSITION":11,
						"NORMAL":12,
						"TEXCOORD_0":13
					},
					"indices":14,
					"material":3
				},
				{
					"attributes":{
						"POSITION":15,
						"NORMAL":16,
						"TEXCOORD_0":17
					},
					"indices":18,
					"material":4
				},
				{
					"attributes":{
						"POSITION":19,
						"NORMAL":20,
						"TEXCOORD_0":21
					},
					"indices":22,
					"material":5
				},
				{
					"attributes":{
						"POSITION":23,
						"NORMAL":24,
						"TEXCOORD_0":25
					},
					"indices":26,
					"material":6
				}
			]
		}
	],
	"textures":[
		{
			"sampler":0,
			"source":0
		}
	],
	"images":[
		{
			"mimeType":"image/png",
			"name":"Ewa(1)",
			"uri":"Ewa1.png"
		}
	],
	"accessors":[
		{
			"bufferView":0,
			"componentType":5126,
			"count":1208,
			"max":[
				0.9679393768310547,
				0.7699997425079346,
				0.43886885046958923
			],
			"min":[
				-0.9684677124023438,
				-0.7700002193450928,
				-0.5027651786804199
			],
			"type":"VEC3"
		},
		{
			"bufferView":1,
			"componentType":5126,
			"count":1208,
			"type":"VEC3"
		},
		{
			"bufferView":2,
			"componentType":5123,
			"count":2988,
			"type":"SCALAR"
		},
		{
			"bufferView":3,
			"componentType":5126,
			"count":18,
			"max":[
				0.9611721038818359,
				0.1397181749343872,
				0.45574548840522766
			],
			"min":[
				-0.9752349853515625,
				-0.14903175830841064,
				-0.4858885109424591
			],
			"type":"VEC3"
		},
		{
			"bufferView":4,
			"componentType":5126,
			"count":18,
			"type":"VEC3"
		},
		{
			"bufferView":5,
			"componentType":5126,
			"count":18,
			"type":"VEC2"
		},
		{
			"bufferView":6,
			"componentType":5123,
			"count":48,
			"type":"SCALAR"
		},
		{
			"bufferView":7,
			"componentType":5126,
			"count":3097,
			"max":[
				0.1959972381591797,
				0.28144121170043945,
				0.284165620803833
			],
			"min":[
				-0.2241535186767578,
				-0.18085074424743652,
				-0.4211183786392212
			],
			"type":"VEC3"
		},
		{
			"bufferView":8,
			"componentType":5126,
			"count":3097,
			"type":"VEC3"
		},
		{
			"bufferView":9,
			"componentType":5126,
			"count":3097,
			"type":"VEC2"
		},
		{
			"bufferView":10,
			"componentType":5123,
			"count":3501,
			"type":"SCALAR"
		},
		{
			"bufferView":11,
			"componentType":5126,
			"count":20593,
			"max":[
				0.43926048278808594,
				0.26138925552368164,
				1.2391386032104492
			],
			"min":[
				-0.4317493438720703,
				-0.2630707025527954,
				-0.6772083044052124
			],
			"type":"VEC3"
		},
		{
			"bufferView":12,
			"componentType":5126,
			"count":20593,
			"type":"VEC3"
		},
		{
			"bufferView":13,
			"componentType":5126,
			"count":20593,
			"type":"VEC2"
		},
		{
			"bufferView":14,
			"componentType":5123,
			"count":21195,
			"type":"SCALAR"
		},
		{
			"bufferView":15,
			"componentType":5126,
			"count":70,
			"max":[
				0.03822135925292969,
				0.11623024940490723,
				-0.5122374296188354
			],
			"min":[
				-0.027353286743164062,
				0.08536028861999512,
				-0.5289002656936646
			],
			"type":"VEC3"
		},
		{
			"bufferView":16,
			"componentType":5126,
			"count":70,
			"type":"VEC3"
		},
		{
			"bufferView":17,
			"componentType":5126,
			"count":70,
			"type":"VEC2"
		},
		{
			"bufferView":18,
			"componentType":5123,
			"count":126,
			"type":"SCALAR"
		},
		{
			"bufferView":19,
			"componentType":5126,
			"count":114,
			"max":[
				0.06152915954589844,
				0.0937662124633789,
				-0.6092084646224976
			],
			"min":[
				-0.05096626281738281,
				0.07690930366516113,
				-0.6333073377609253
			],
			"type":"VEC3"
		},
		{
			"bufferView":20,
			"componentType":5126,
			"count":114,
			"type":"VEC3"
		},
		{
			"bufferView":21,
			"componentType":5126,
			"count":114,
			"type":"VEC2"
		},
		{
			"bufferView":22,
			"componentType":5123,
			"count":216,
			"type":"SCALAR"
		},
		{
			"bufferView":23,
			"componentType":5126,
			"count":7696,
			"max":[
				0.1768474578857422,
				0.11970722675323486,
				-0.11961328983306885
			],
			"min":[
				-0.21610450744628906,
				-0.28144174814224243,
				-0.7588714361190796
			],
			"type":"VEC3"
		},
		{
			"bufferView":24,
			"componentType":5126,
			"count":7696,
			"type":"VEC3"
		},
		{
			"bufferView":25,
			"componentType":5126,
			"count":7696,
			"type":"VEC2"
		},
		{
			"bufferView":26,
			"componentType":5123,
			"count":7698,
			"type":"SCALAR"
		}
	],
	"bufferViews":[
		{
			"buffer":0,
			"byteLength":14496,
			"byteOffset":0,
			"target":34962
		},
		{
			"buffer":0,
			"byteLength":14496,
			"byteOffset":14496,
			"target":34962
		},
		{
			"buffer":0,
			"byteLength":5976,
			"byteOffset":28992,
			"target":34963
		},
		{
			"buffer":0,
			"byteLength":216,
			"byteOffset":34968,
			"target":34962
		},
		{
			"buffer":0,
			"byteLength":216,
			"byteOffset":35184,
			"target":34962
		},
		{
			"buffer":0,
			"byteLength":144,
			"byteOffset":35400,
			"target":34962
		},
		{
			"buffer":0,
			"byteLength":96,
			"byteOffset":35544,
			"target":34963
		},
		{
			"buffer":0,
			"byteLength":37164,
			"byteOffset":35640,
			"target":34962
		},
		{
			"buffer":0,
			"byteLength":37164,
			"byteOffset":72804,
			"target":34962
		},
		{
			"buffer":0,
			"byteLength":24776,
			"byteOffset":109968,
			"target":34962
		},
		{
			"buffer":0,
			"byteLength":7002,
			"byteOffset":134744,
			"target":34963
		},
		{
			"buffer":0,
			"byteLength":247116,
			"byteOffset":141748,
			"target":34962
		},
		{
			"buffer":0,
			"byteLength":247116,
			"byteOffset":388864,
			"target":34962
		},
		{
			"buffer":0,
			"byteLength":164744,
			"byteOffset":635980,
			"target":34962
		},
		{
			"buffer":0,
			"byteLength":42390,
			"byteOffset":800724,
			"target":34963
		},
		{
			"buffer":0,
			"byteLength":840,
			"byteOffset":843116,
			"target":34962
		},
		{
			"buffer":0,
			"byteLength":840,
			"byteOffset":843956,
			"target":34962
		},
		{
			"buffer":0,
			"byteLength":560,
			"byteOffset":844796,
			"target":34962
		},
		{
			"buffer":0,
			"byteLength":252,
			"byteOffset":845356,
			"target":34963
		},
		{
			"buffer":0,
			"byteLength":1368,
			"byteOffset":845608,
			"target":34962
		},
		{
			"buffer":0,
			"byteLength":1368,
			"byteOffset":846976,
			"target":34962
		},
		{
			"buffer":0,
			"byteLength":912,
			"byteOffset":848344,
			"target":34962
		},
		{
			"buffer":0,
			"byteLength":432,
			"byteOffset":849256,
			"target":34963
		},
		{
			"buffer":0,
			"byteLength":92352,
			"byteOffset":849688,
			"target":34962
		},
		{
			"buffer":0,
			"byteLength":92352,
			"byteOffset":942040,
			"target":34962
		},
		{
			"buffer":0,
			"byteLength":61568,
			"byteOffset":1034392,
			"target":34962
		},
		{
			"buffer":0,
			"byteLength":15396,
			"byteOffset":1095960,
			"target":34963
		}
	],
	"samplers":[
		{
			"magFilter":9729,
			"minFilter":9987
		}
	],
	"buffers":[
		{
			"byteLength":1111356,
			"uri":"brunette.bin"
		}
	]
}
