{
	"asset":{
		"generator":"Khronos glTF Blender I/O v4.1.62",
		"version":"2.0"
	},
	"extensionsUsed":[
		"KHR_materials_specular",
		"KHR_materials_ior"
	],
	"scene":0,
	"scenes":[
		{
			"name":"Scene",
			"nodes":[
				0,
				1,
				2
			]
		}
	],
	"nodes":[
		{
			"mesh":0,
			"name":"another_stand2.002",
			"rotation":[
				0.7071068286895752,
				0,
				0,
				0.7071068286895752
			],
			"translation":[
				0.2819404602050781,
				-0.5667195320129395,
				0.6347612142562866
			]
		},
		{
			"mesh":1,
			"name":"another_stand2.003",
			"rotation":[
				0.7071068286895752,
				0,
				0,
				0.7071068286895752
			],
			"translation":[
				0.27486419677734375,
				-0.5825075507164001,
				-0.051903996616601944
			]
		},
		{
			"mesh":2,
			"name":"Highly_detailed_styli_0508154048_texture.001",
			"rotation":[
				0.7071068286895752,
				0,
				0,
				0.7071068286895752
			],
			"translation":[
				0.28205108642578125,
				0.7482498288154602,
				-0.002058686688542366
			]
		}
	],
	"materials":[
		{
			"doubleSided":true,
			"name":"Material.010",
			"pbrMetallicRoughness":{
				"baseColorTexture":{
					"index":0
				},
				"metallicFactor":0,
				"roughnessFactor":0.5
			}
		},
		{
			"doubleSided":true,
			"name":"Material.007",
			"pbrMetallicRoughness":{
				"baseColorFactor":[
					0.025187000632286072,
					0.028426000848412514,
					0.03310399875044823,
					1
				],
				"metallicFactor":0,
				"roughnessFactor":0.5
			}
		},
		{
			"doubleSided":true,
			"name":"Material.002",
			"pbrMetallicRoughness":{
				"baseColorFactor":[
					0.16826799511909485,
					0.1714410036802292,
					0.19120199978351593,
					1
				],
				"metallicFactor":0,
				"roughnessFactor":0.5
			}
		},
		{
			"doubleSided":true,
			"name":"Material.004",
			"pbrMetallicRoughness":{
				"baseColorFactor":[
					0.6657570004463196,
					0.4921500086784363,
					0.3699449896812439,
					1
				],
				"metallicFactor":0,
				"roughnessFactor":0.5
			}
		},
		{
			"doubleSided":true,
			"extensions":{
				"KHR_materials_specular":{
					"specularFactor":0
				},
				"KHR_materials_ior":{
					"ior":1.4500000476837158
				}
			},
			"name":"Rubber_black.001",
			"pbrMetallicRoughness":{
				"baseColorFactor":[
					0.009646999649703503,
					0.009646999649703503,
					0.009646999649703503,
					1
				],
				"metallicFactor":0,
				"roughnessFactor":0.5
			}
		},
		{
			"doubleSided":true,
			"extensions":{
				"KHR_materials_specular":{
					"specularFactor":0
				},
				"KHR_materials_ior":{
					"ior":1.4500000476837158
				}
			},
			"name":"Rubber_black.004",
			"pbrMetallicRoughness":{
				"baseColorFactor":[
					0.009646999649703503,
					0.009646999649703503,
					0.009646999649703503,
					1
				],
				"metallicFactor":0,
				"roughnessFactor":0.5
			}
		}
	],
	"meshes":[
		{
			"name":"another_stand2.002",
			"primitives":[
				{
					"attributes":{
						"POSITION":0,
						"NORMAL":1,
						"TEXCOORD_0":2
					},
					"indices":3,
					"material":0
				}
			]
		},
		{
			"name":"another_stand2.003",
			"primitives":[
				{
					"attributes":{
						"POSITION":4,
						"NORMAL":5
					},
					"indices":6,
					"material":1
				}
			]
		},
		{
			"name":"Highly_detailed_styli_0508154048_texture.001",
			"primitives":[
				{
					"attributes":{
						"POSITION":7,
						"NORMAL":8,
						"TEXCOORD_0":9
					},
					"indices":10,
					"material":2
				},
				{
					"attributes":{
						"POSITION":11,
						"NORMAL":12,
						"TEXCOORD_0":13
					},
					"indices":14,
					"material":3
				},
				{
					"attributes":{
						"POSITION":15,
						"NORMAL":16,
						"TEXCOORD_0":17
					},
					"indices":18,
					"material":4
				},
				{
					"attributes":{
						"POSITION":19,
						"NORMAL":20,
						"TEXCOORD_0":21
					},
					"indices":22,
					"material":5
				}
			]
		}
	],
	"textures":[
		{
			"sampler":0,
			"source":0
		}
	],
	"images":[
		{
			"mimeType":"image/png",
			"name":"Bartosz",
			"uri":"Bartosz.png"
		}
	],
	"accessors":[
		{
			"bufferView":0,
			"componentType":5126,
			"count":18,
			"max":[
				1.0006561279296875,
				0.1522168517112732,
				0.4263504147529602
			],
			"min":[
				-1.0153045654296875,
				-0.1623641550540924,
				-0.45454859733581543
			],
			"type":"VEC3"
		},
		{
			"bufferView":1,
			"componentType":5126,
			"count":18,
			"type":"VEC3"
		},
		{
			"bufferView":2,
			"componentType":5126,
			"count":18,
			"type":"VEC2"
		},
		{
			"bufferView":3,
			"componentType":5123,
			"count":48,
			"type":"SCALAR"
		},
		{
			"bufferView":4,
			"componentType":5126,
			"count":1550,
			"max":[
				1.0077323913574219,
				0.8388820290565491,
				0.4105624556541443
			],
			"min":[
				-1.0082283020019531,
				-0.8388819694519043,
				-0.47033655643463135
			],
			"type":"VEC3"
		},
		{
			"bufferView":5,
			"componentType":5126,
			"count":1550,
			"type":"VEC3"
		},
		{
			"bufferView":6,
			"componentType":5123,
			"count":2988,
			"type":"SCALAR"
		},
		{
			"bufferView":7,
			"componentType":5126,
			"count":2274,
			"max":[
				0.4666709899902344,
				0.3502296209335327,
				0.41740483045578003
			],
			"min":[
				-0.45842742919921875,
				-0.37083137035369873,
				-1.1162512302398682
			],
			"type":"VEC3"
		},
		{
			"bufferView":8,
			"componentType":5126,
			"count":2274,
			"type":"VEC3"
		},
		{
			"bufferView":9,
			"componentType":5126,
			"count":2274,
			"type":"VEC2"
		},
		{
			"bufferView":10,
			"componentType":5123,
			"count":6960,
			"type":"SCALAR"
		},
		{
			"bufferView":11,
			"componentType":5126,
			"count":6091,
			"max":[
				0.7483634948730469,
				0.444921612739563,
				0.8833388090133667
			],
			"min":[
				-0.7379837036132812,
				-0.3743113875389099,
				-1.0461852550506592
			],
			"type":"VEC3"
		},
		{
			"bufferView":12,
			"componentType":5126,
			"count":6091,
			"type":"VEC3"
		},
		{
			"bufferView":13,
			"componentType":5126,
			"count":6091,
			"type":"VEC2"
		},
		{
			"bufferView":14,
			"componentType":5123,
			"count":21198,
			"type":"SCALAR"
		},
		{
			"bufferView":15,
			"componentType":5126,
			"count":429,
			"max":[
				0.7862510681152344,
				0.3019726276397705,
				0.23544281721115112
			],
			"min":[
				0.4196624755859375,
				-0.17527537047863007,
				0.04766082763671875
			],
			"type":"VEC3"
		},
		{
			"bufferView":16,
			"componentType":5126,
			"count":429,
			"type":"VEC3"
		},
		{
			"bufferView":17,
			"componentType":5126,
			"count":429,
			"type":"VEC2"
		},
		{
			"bufferView":18,
			"componentType":5123,
			"count":906,
			"type":"SCALAR"
		},
		{
			"bufferView":19,
			"componentType":5126,
			"count":405,
			"max":[
				-0.39647674560546875,
				0.26559963822364807,
				0.23544281721115112
			],
			"min":[
				-0.7578201293945312,
				-0.2128523737192154,
				0.04766184091567993
			],
			"type":"VEC3"
		},
		{
			"bufferView":20,
			"componentType":5126,
			"count":405,
			"type":"VEC3"
		},
		{
			"bufferView":21,
			"componentType":5126,
			"count":405,
			"type":"VEC2"
		},
		{
			"bufferView":22,
			"componentType":5123,
			"count":852,
			"type":"SCALAR"
		}
	],
	"bufferViews":[
		{
			"buffer":0,
			"byteLength":216,
			"byteOffset":0,
			"target":34962
		},
		{
			"buffer":0,
			"byteLength":216,
			"byteOffset":216,
			"target":34962
		},
		{
			"buffer":0,
			"byteLength":144,
			"byteOffset":432,
			"target":34962
		},
		{
			"buffer":0,
			"byteLength":96,
			"byteOffset":576,
			"target":34963
		},
		{
			"buffer":0,
			"byteLength":18600,
			"byteOffset":672,
			"target":34962
		},
		{
			"buffer":0,
			"byteLength":18600,
			"byteOffset":19272,
			"target":34962
		},
		{
			"buffer":0,
			"byteLength":5976,
			"byteOffset":37872,
			"target":34963
		},
		{
			"buffer":0,
			"byteLength":27288,
			"byteOffset":43848,
			"target":34962
		},
		{
			"buffer":0,
			"byteLength":27288,
			"byteOffset":71136,
			"target":34962
		},
		{
			"buffer":0,
			"byteLength":18192,
			"byteOffset":98424,
			"target":34962
		},
		{
			"buffer":0,
			"byteLength":13920,
			"byteOffset":116616,
			"target":34963
		},
		{
			"buffer":0,
			"byteLength":73092,
			"byteOffset":130536,
			"target":34962
		},
		{
			"buffer":0,
			"byteLength":73092,
			"byteOffset":203628,
			"target":34962
		},
		{
			"buffer":0,
			"byteLength":48728,
			"byteOffset":276720,
			"target":34962
		},
		{
			"buffer":0,
			"byteLength":42396,
			"byteOffset":325448,
			"target":34963
		},
		{
			"buffer":0,
			"byteLength":5148,
			"byteOffset":367844,
			"target":34962
		},
		{
			"buffer":0,
			"byteLength":5148,
			"byteOffset":372992,
			"target":34962
		},
		{
			"buffer":0,
			"byteLength":3432,
			"byteOffset":378140,
			"target":34962
		},
		{
			"buffer":0,
			"byteLength":1812,
			"byteOffset":381572,
			"target":34963
		},
		{
			"buffer":0,
			"byteLength":4860,
			"byteOffset":383384,
			"target":34962
		},
		{
			"buffer":0,
			"byteLength":4860,
			"byteOffset":388244,
			"target":34962
		},
		{
			"buffer":0,
			"byteLength":3240,
			"byteOffset":393104,
			"target":34962
		},
		{
			"buffer":0,
			"byteLength":1704,
			"byteOffset":396344,
			"target":34963
		}
	],
	"samplers":[
		{
			"magFilter":9729,
			"minFilter":9987
		}
	],
	"buffers":[
		{
			"byteLength":398048,
			"uri":"TrustBulk.bin"
		}
	]
}
