{
	"asset":{
		"generator":"Khronos glTF Blender I/O v4.1.62",
		"version":"2.0"
	},
	"scene":0,
	"scenes":[
		{
			"name":"Scene",
			"nodes":[
				0,
				1,
				2
			]
		}
	],
	"nodes":[
		{
			"mesh":0,
			"name":"another_stand2",
			"rotation":[
				0,
				0.7071068286895752,
				0,
				0.7071068286895752
			],
			"scale":[
				0.03999999910593033,
				0.03999999910593033,
				0.03999999910593033
			],
			"translation":[
				-0.182692289352417,
				0.8454318046569824,
				0
			]
		},
		{
			"mesh":1,
			"name":"another_stand2.001",
			"rotation":[
				0,
				0.7071068286895752,
				0,
				0.7071068286895752
			],
			"scale":[
				0.03999999910593033,
				0.03999999910593033,
				0.03999999910593033
			],
			"translation":[
				-0.182692289352417,
				0.8454318046569824,
				0
			]
		},
		{
			"mesh":2,
			"name":"Stylized_3D_figurine__0523090015_texture",
			"rotation":[
				0.7071068286895752,
				0,
				0,
				0.7071068286895752
			],
			"translation":[
				-0.15911969542503357,
				2.5189366340637207,
				0
			]
		}
	],
	"materials":[
		{
			"doubleSided":true,
			"name":"Material.002",
			"pbrMetallicRoughness":{
				"baseColorFactor":[
					0.4396507740020752,
					0.21585622429847717,
					0.18447408080101013,
					1
				],
				"metallicFactor":0,
				"roughnessFactor":0.5
			}
		},
		{
			"doubleSided":true,
			"name":"Material.003",
			"pbrMetallicRoughness":{
				"baseColorTexture":{
					"index":0
				},
				"metallicFactor":0,
				"roughnessFactor":0.5
			}
		},
		{
			"doubleSided":true,
			"name":"Material.011",
			"pbrMetallicRoughness":{
				"baseColorTexture":{
					"index":1
				},
				"metallicFactor":0,
				"roughnessFactor":0.5
			}
		}
	],
	"meshes":[
		{
			"name":"another_stand2",
			"primitives":[
				{
					"attributes":{
						"POSITION":0,
						"NORMAL":1
					},
					"indices":2,
					"material":0
				}
			]
		},
		{
			"name":"another_stand2.001",
			"primitives":[
				{
					"attributes":{
						"POSITION":3,
						"NORMAL":4,
						"TEXCOORD_0":5
					},
					"indices":6,
					"material":1
				}
			]
		},
		{
			"name":"Stylized_3D_figurine__0523090015_texture",
			"primitives":[
				{
					"attributes":{
						"POSITION":7,
						"NORMAL":8,
						"TEXCOORD_0":9
					},
					"indices":10,
					"material":2
				}
			]
		}
	],
	"textures":[
		{
			"sampler":0,
			"source":0
		},
		{
			"sampler":0,
			"source":1
		}
	],
	"images":[
		{
			"mimeType":"image/png",
			"name":"ZOSIA",
			"uri":"ZOSIA.png"
		},
		{
			"mimeType":"image/png",
			"name":"Stylized_3D_figurine__0523090015_texture",
			"uri":"Stylized_3D_figurine__0523090015_texture.png"
		}
	],
	"accessors":[
		{
			"bufferView":0,
			"componentType":5126,
			"count":727,
			"max":[
				27.5,
				17.955888748168945,
				34.56965637207031
			],
			"min":[
				-27.5,
				-15.67389965057373,
				-34.58770751953125
			],
			"type":"VEC3"
		},
		{
			"bufferView":1,
			"componentType":5126,
			"count":727,
			"type":"VEC3"
		},
		{
			"bufferView":2,
			"componentType":5123,
			"count":2988,
			"type":"SCALAR"
		},
		{
			"bufferView":3,
			"componentType":5126,
			"count":18,
			"max":[
				-17.187498092651367,
				17.955888748168945,
				34.56965637207031
			],
			"min":[
				-27.5,
				-15.67389965057373,
				-34.58770751953125
			],
			"type":"VEC3"
		},
		{
			"bufferView":4,
			"componentType":5126,
			"count":18,
			"type":"VEC3"
		},
		{
			"bufferView":5,
			"componentType":5126,
			"count":18,
			"type":"VEC2"
		},
		{
			"bufferView":6,
			"componentType":5123,
			"count":48,
			"type":"SCALAR"
		},
		{
			"bufferView":7,
			"componentType":5126,
			"count":29992,
			"max":[
				0.6479600071907043,
				0.6409519910812378,
				0.991117000579834
			],
			"min":[
				-0.6522780060768127,
				-0.6444240212440491,
				-1.001099944114685
			],
			"type":"VEC3"
		},
		{
			"bufferView":8,
			"componentType":5126,
			"count":29992,
			"type":"VEC3"
		},
		{
			"bufferView":9,
			"componentType":5126,
			"count":29992,
			"type":"VEC2"
		},
		{
			"bufferView":10,
			"componentType":5123,
			"count":30000,
			"type":"SCALAR"
		}
	],
	"bufferViews":[
		{
			"buffer":0,
			"byteLength":8724,
			"byteOffset":0,
			"target":34962
		},
		{
			"buffer":0,
			"byteLength":8724,
			"byteOffset":8724,
			"target":34962
		},
		{
			"buffer":0,
			"byteLength":5976,
			"byteOffset":17448,
			"target":34963
		},
		{
			"buffer":0,
			"byteLength":216,
			"byteOffset":23424,
			"target":34962
		},
		{
			"buffer":0,
			"byteLength":216,
			"byteOffset":23640,
			"target":34962
		},
		{
			"buffer":0,
			"byteLength":144,
			"byteOffset":23856,
			"target":34962
		},
		{
			"buffer":0,
			"byteLength":96,
			"byteOffset":24000,
			"target":34963
		},
		{
			"buffer":0,
			"byteLength":359904,
			"byteOffset":24096,
			"target":34962
		},
		{
			"buffer":0,
			"byteLength":359904,
			"byteOffset":384000,
			"target":34962
		},
		{
			"buffer":0,
			"byteLength":239936,
			"byteOffset":743904,
			"target":34962
		},
		{
			"buffer":0,
			"byteLength":60000,
			"byteOffset":983840,
			"target":34963
		}
	],
	"samplers":[
		{
			"magFilter":9729,
			"minFilter":9987
		}
	],
	"buffers":[
		{
			"byteLength":1043840,
			"uri":"specialGirl.bin"
		}
	]
}
