{
	"asset":{
		"generator":"Khronos glTF Blender I/O v4.1.62",
		"version":"2.0"
	},
	"scene":0,
	"scenes":[
		{
			"name":"Scene",
			"nodes":[
				11,
				12,
				13,
				14,
				15,
				16,
				26,
				27,
				28,
				29,
				30,
				31,
				32
			]
		}
	],
	"nodes":[
		{
			"name":"Pattern2D_10064",
			"scale":[
				0.009999999776482582,
				0.009999999776482582,
				0.010000000707805157
			]
		},
		{
			"name":"Pattern2D_10065",
			"scale":[
				0.009999999776482582,
				0.009999999776482582,
				0.010000000707805157
			]
		},
		{
			"name":"Pattern2D_10066",
			"scale":[
				0.009999999776482582,
				0.009999999776482582,
				0.010000000707805157
			]
		},
		{
			"name":"Pattern2D_25095",
			"scale":[
				0.009999999776482582,
				0.009999999776482582,
				0.010000000707805157
			]
		},
		{
			"name":"Pattern2D_25096",
			"scale":[
				0.009999999776482582,
				0.009999999776482582,
				0.010000000707805157
			]
		},
		{
			"mesh":0,
			"name":"Pattern2D_53052_FABRIC 1_FRONT_4376_0",
			"rotation":[
				0.11298105120658875,
				0.22828660905361176,
				0.049353327602148056,
				0.9657560586929321
			],
			"translation":[
				-6.883300304412842,
				150.79661560058594,
				13.20556640625
			]
		},
		{
			"children":[
				5
			],
			"name":"Pattern2D_53052",
			"scale":[
				0.009999999776482582,
				0.009999999776482582,
				0.010000000707805157
			]
		},
		{
			"mesh":1,
			"name":"Pattern2D_53053_FABRIC 1_FRONT_4376_0",
			"translation":[
				8.52137565612793,
				151.18687438964844,
				11.50374984741211
			]
		},
		{
			"children":[
				7
			],
			"name":"Pattern2D_53053",
			"scale":[
				0.009999999776482582,
				0.009999999776482582,
				0.010000000707805157
			]
		},
		{
			"children":[
				0,
				1,
				2,
				3,
				4,
				6,
				8
			],
			"name":"RootNode"
		},
		{
			"children":[
				9
			],
			"name":"bra.fbx",
			"rotation":[
				0.70710688829422,
				0,
				0,
				0.7071066498756409
			]
		},
		{
			"children":[
				10
			],
			"name":"Sketchfab_model",
			"rotation":[
				-0.6771210432052612,
				-0.20373296737670898,
				-0.20373299717903137,
				0.6771209836006165
			],
			"scale":[
				71.05264282226562,
				69.1234130859375,
				72.51946258544922
			],
			"translation":[
				-4.181669235229492,
				7.508657455444336,
				1.15775465965271
			]
		},
		{
			"mesh":2,
			"name":"bbgirl",
			"scale":[
				0.6941430568695068,
				0.6941400170326233,
				0.6941430568695068
			],
			"translation":[
				0,
				43.66558837890625,
				0
			]
		},
		{
			"name":"Circle",
			"scale":[
				10.109511375427246,
				10.109511375427246,
				10.109511375427246
			],
			"translation":[
				-5.2392425537109375,
				115.8543930053711,
				0.7180368900299072
			]
		},
		{
			"mesh":3,
			"name":"B\u00e9zierCircle",
			"scale":[
				9.233848571777344,
				9.233848571777344,
				9.233848571777344
			],
			"translation":[
				-5.170038223266602,
				115.5994873046875,
				1.7224760055541992
			]
		},
		{
			"mesh":4,
			"name":"B\u00e9zierCircle.001",
			"rotation":[
				-0.19922654330730438,
				-0.20832610130310059,
				0.6618101596832275,
				0.6920379400253296
			],
			"scale":[
				10.252753257751465,
				9.856115341186523,
				8.24128246307373
			],
			"translation":[
				0.7444409728050232,
				122.9911117553711,
				1.6464195251464844
			]
		},
		{
			"mesh":5,
			"name":"B\u00e9zierCircle.002",
			"rotation":[
				0.37491562962532043,
				-0.5902811288833618,
				0.6190292239189148,
				0.357504278421402
			],
			"scale":[
				8.406310081481934,
				25.040302276611328,
				10.544990539550781
			],
			"translation":[
				-9.077635765075684,
				116.29479217529297,
				-1.245322346687317
			]
		},
		{
			"name":"Pattern2D_10064.001",
			"scale":[
				0.009999999776482582,
				0.009999999776482582,
				0.010000000707805157
			]
		},
		{
			"name":"Pattern2D_10065.001",
			"scale":[
				0.009999999776482582,
				0.009999999776482582,
				0.010000000707805157
			]
		},
		{
			"name":"Pattern2D_10066.001",
			"scale":[
				0.009999999776482582,
				0.009999999776482582,
				0.010000000707805157
			]
		},
		{
			"name":"Pattern2D_25095.001",
			"scale":[
				0.009999999776482582,
				0.009999999776482582,
				0.010000000707805157
			]
		},
		{
			"name":"Pattern2D_25096.001",
			"scale":[
				0.009999999776482582,
				0.009999999776482582,
				0.010000000707805157
			]
		},
		{
			"name":"Pattern2D_53052.001",
			"scale":[
				0.009999999776482582,
				0.009999999776482582,
				0.010000000707805157
			]
		},
		{
			"name":"Pattern2D_53053.001",
			"scale":[
				0.009999999776482582,
				0.009999999776482582,
				0.010000000707805157
			]
		},
		{
			"children":[
				17,
				18,
				19,
				20,
				21,
				22,
				23
			],
			"name":"RootNode.001"
		},
		{
			"children":[
				24
			],
			"name":"bra.fbx.001",
			"rotation":[
				0.70710688829422,
				0,
				0,
				0.7071066498756409
			]
		},
		{
			"children":[
				25
			],
			"name":"Sketchfab_model.001",
			"rotation":[
				-0.6771210432052612,
				-0.20373296737670898,
				-0.20373299717903137,
				0.6771209836006165
			],
			"scale":[
				71.05264282226562,
				69.1234130859375,
				72.51946258544922
			],
			"translation":[
				135.8665008544922,
				7.508657455444336,
				1.15775465965271
			]
		},
		{
			"mesh":6,
			"name":"B\u00e9zierCircle.003",
			"rotation":[
				-0.04821450263261795,
				-0.13056586682796478,
				0.014102333225309849,
				0.9901662468910217
			],
			"scale":[
				11.977804183959961,
				6.374870777130127,
				9.2132568359375
			],
			"translation":[
				-8.300248146057129,
				116.28438568115234,
				8.39458179473877
			]
		},
		{
			"mesh":7,
			"name":"another_stand2",
			"rotation":[
				0,
				0.7071068286895752,
				0,
				0.7071068286895752
			],
			"scale":[
				1.2114781141281128,
				1,
				1
			],
			"translation":[
				-4.697291851043701,
				25.98501968383789,
				0
			]
		},
		{
			"mesh":8,
			"name":"bbgirl.001",
			"scale":[
				0.6941430568695068,
				0.6941400170326233,
				0.6941430568695068
			],
			"translation":[
				0,
				43.66600036621094,
				0
			]
		},
		{
			"mesh":9,
			"name":"bbgirl.002",
			"scale":[
				0.6941430568695068,
				0.6941400170326233,
				0.6941430568695068
			],
			"translation":[
				0,
				43.66558837890625,
				0
			]
		},
		{
			"mesh":10,
			"name":"bbgirl.003",
			"scale":[
				0.6941430568695068,
				0.6941400170326233,
				0.6941430568695068
			],
			"translation":[
				0,
				43.66558837890625,
				0
			]
		},
		{
			"mesh":11,
			"name":"Text",
			"rotation":[
				0.5636833906173706,
				0,
				0,
				0.8259909749031067
			],
			"scale":[
				14.906912803649902,
				21.69679832458496,
				16.13385009765625
			],
			"translation":[
				-20.319881439208984,
				29.8988037109375,
				27.147014617919922
			]
		}
	],
	"materials":[
		{
			"doubleSided":true,
			"name":"bikini",
			"pbrMetallicRoughness":{
				"baseColorFactor":[
					1,
					0.024990791454911232,
					0.03873853385448456,
					1
				],
				"metallicFactor":0,
				"roughnessFactor":0.5
			}
		},
		{
			"doubleSided":true,
			"name":"Material",
			"pbrMetallicRoughness":{
				"baseColorFactor":[
					1,
					0.7083868980407715,
					0.4125412106513977,
					1
				],
				"metallicFactor":0,
				"roughnessFactor":0.5
			}
		},
		{
			"doubleSided":true,
			"name":"Material.005",
			"pbrMetallicRoughness":{
				"baseColorTexture":{
					"index":0
				},
				"roughnessFactor":0.5
			}
		},
		{
			"doubleSided":true,
			"name":"Material.002",
			"pbrMetallicRoughness":{
				"baseColorFactor":[
					0.13013577461242676,
					0.05612855404615402,
					0.0152085330337286,
					1
				],
				"metallicFactor":0,
				"roughnessFactor":0.5
			}
		},
		{
			"doubleSided":true,
			"name":"Material.006",
			"pbrMetallicRoughness":{
				"baseColorFactor":[
					0,
					0,
					0,
					1
				],
				"metallicFactor":0,
				"roughnessFactor":0.5
			}
		},
		{
			"doubleSided":true,
			"name":"Material.001",
			"pbrMetallicRoughness":{
				"metallicFactor":0,
				"roughnessFactor":0.5
			}
		}
	],
	"meshes":[
		{
			"name":"Pattern2D_53052_FABRIC 1_FRONT_4376_0",
			"primitives":[
				{
					"attributes":{
						"POSITION":0,
						"NORMAL":1,
						"TEXCOORD_0":2
					},
					"indices":3,
					"material":0
				}
			]
		},
		{
			"name":"Pattern2D_53053_FABRIC 1_FRONT_4376_0",
			"primitives":[
				{
					"attributes":{
						"POSITION":4,
						"NORMAL":5,
						"TEXCOORD_0":6
					},
					"indices":7,
					"material":0
				}
			]
		},
		{
			"name":"bbgirl.001",
			"primitives":[
				{
					"attributes":{
						"POSITION":8,
						"NORMAL":9
					},
					"indices":10,
					"material":1
				}
			]
		},
		{
			"name":"Mesh.003",
			"primitives":[
				{
					"attributes":{
						"POSITION":11,
						"NORMAL":12
					},
					"indices":13,
					"material":0
				}
			]
		},
		{
			"name":"Mesh.009",
			"primitives":[
				{
					"attributes":{
						"POSITION":14,
						"NORMAL":15
					},
					"indices":16,
					"material":0
				}
			]
		},
		{
			"name":"Mesh.013",
			"primitives":[
				{
					"attributes":{
						"POSITION":17,
						"NORMAL":18
					},
					"indices":19,
					"material":0
				}
			]
		},
		{
			"name":"Mesh.001",
			"primitives":[
				{
					"attributes":{
						"POSITION":20,
						"NORMAL":21
					},
					"indices":22,
					"material":0
				}
			]
		},
		{
			"name":"another_stand2",
			"primitives":[
				{
					"attributes":{
						"POSITION":23,
						"NORMAL":24,
						"TEXCOORD_0":25
					},
					"indices":26,
					"material":2
				}
			]
		},
		{
			"name":"bbgirl.003",
			"primitives":[
				{
					"attributes":{
						"POSITION":27,
						"NORMAL":28
					},
					"indices":29,
					"material":3
				}
			]
		},
		{
			"name":"bbgirl.004",
			"primitives":[
				{
					"attributes":{
						"POSITION":30,
						"NORMAL":31
					},
					"indices":32,
					"material":0
				}
			]
		},
		{
			"name":"bbgirl.005",
			"primitives":[
				{
					"attributes":{
						"POSITION":33,
						"NORMAL":34
					},
					"indices":35,
					"material":4
				}
			]
		},
		{
			"name":"Text",
			"primitives":[
				{
					"attributes":{
						"POSITION":36,
						"NORMAL":37,
						"TEXCOORD_0":38
					},
					"indices":39,
					"material":5
				}
			]
		}
	],
	"textures":[
		{
			"sampler":0,
			"source":0
		}
	],
	"images":[
		{
			"mimeType":"image/jpeg",
			"name":"wood_texture2",
			"uri":"wood_texture2.jpg"
		}
	],
	"accessors":[
		{
			"bufferView":0,
			"componentType":5126,
			"count":74,
			"max":[
				6.414492130279541,
				4.551621913909912,
				2.2698638439178467
			],
			"min":[
				-3.1649107933044434,
				-3.3352415561676025,
				-5.04364538192749
			],
			"type":"VEC3"
		},
		{
			"bufferView":1,
			"componentType":5126,
			"count":74,
			"type":"VEC3"
		},
		{
			"bufferView":2,
			"componentType":5126,
			"count":74,
			"type":"VEC2"
		},
		{
			"bufferView":3,
			"componentType":5123,
			"count":432,
			"type":"SCALAR"
		},
		{
			"bufferView":4,
			"componentType":5126,
			"count":74,
			"max":[
				3.68589448928833,
				4.702510356903076,
				2.876535415649414
			],
			"min":[
				-7.046534061431885,
				-3.6000261306762695,
				-5.636006832122803
			],
			"type":"VEC3"
		},
		{
			"bufferView":5,
			"componentType":5126,
			"count":74,
			"type":"VEC3"
		},
		{
			"bufferView":6,
			"componentType":5126,
			"count":74,
			"type":"VEC2"
		},
		{
			"bufferView":7,
			"componentType":5123,
			"count":432,
			"type":"SCALAR"
		},
		{
			"bufferView":8,
			"componentType":5126,
			"count":347749,
			"max":[
				23.17548942565918,
				140.37002563476562,
				28.86504554748535
			],
			"min":[
				-23.18187141418457,
				0,
				-27.904373168945312
			],
			"type":"VEC3"
		},
		{
			"bufferView":9,
			"componentType":5126,
			"count":347749,
			"type":"VEC3"
		},
		{
			"bufferView":10,
			"componentType":5125,
			"count":2063976,
			"type":"SCALAR"
		},
		{
			"bufferView":11,
			"componentType":5126,
			"count":34282,
			"max":[
				1.145944356918335,
				0.04032830148935318,
				0.8787856101989746
			],
			"min":[
				-1.013204574584961,
				-0.1060880720615387,
				-1.0041077136993408
			],
			"type":"VEC3"
		},
		{
			"bufferView":12,
			"componentType":5126,
			"count":34282,
			"type":"VEC3"
		},
		{
			"bufferView":13,
			"componentType":5123,
			"count":51456,
			"type":"SCALAR"
		},
		{
			"bufferView":14,
			"componentType":5126,
			"count":484,
			"max":[
				0.4938000738620758,
				0.34411871433258057,
				1.1019697189331055
			],
			"min":[
				-0.7623364925384521,
				-0.22368863224983215,
				-0.764644205570221
			],
			"type":"VEC3"
		},
		{
			"bufferView":15,
			"componentType":5126,
			"count":484,
			"type":"VEC3"
		},
		{
			"bufferView":16,
			"componentType":5123,
			"count":612,
			"type":"SCALAR"
		},
		{
			"bufferView":17,
			"componentType":5126,
			"count":448,
			"max":[
				0.9413958191871643,
				0.04431706666946411,
				0.10652543604373932
			],
			"min":[
				-0.9012202024459839,
				-0.03702826425433159,
				-1.0066851377487183
			],
			"type":"VEC3"
		},
		{
			"bufferView":18,
			"componentType":5126,
			"count":448,
			"type":"VEC3"
		},
		{
			"bufferView":19,
			"componentType":5123,
			"count":588,
			"type":"SCALAR"
		},
		{
			"bufferView":20,
			"componentType":5126,
			"count":40,
			"max":[
				0.14519914984703064,
				0.06291327625513077,
				0.05808645486831665
			],
			"min":[
				-0.14389511942863464,
				-0.06269603222608566,
				-0.06284964084625244
			],
			"type":"VEC3"
		},
		{
			"bufferView":21,
			"componentType":5126,
			"count":40,
			"type":"VEC3"
		},
		{
			"bufferView":22,
			"componentType":5123,
			"count":60,
			"type":"SCALAR"
		},
		{
			"bufferView":23,
			"componentType":5126,
			"count":747,
			"max":[
				27.5,
				17.955886840820312,
				34.56983184814453
			],
			"min":[
				-27.5,
				-15.673901557922363,
				-34.58753204345703
			],
			"type":"VEC3"
		},
		{
			"bufferView":24,
			"componentType":5126,
			"count":747,
			"type":"VEC3"
		},
		{
			"bufferView":25,
			"componentType":5126,
			"count":747,
			"type":"VEC2"
		},
		{
			"bufferView":26,
			"componentType":5123,
			"count":3036,
			"type":"SCALAR"
		},
		{
			"bufferView":27,
			"componentType":5126,
			"count":13213,
			"max":[
				6.055663108825684,
				144.37954711914062,
				10.334392547607422
			],
			"min":[
				-11.597417831420898,
				122.16803741455078,
				-13.248790740966797
			],
			"type":"VEC3"
		},
		{
			"bufferView":28,
			"componentType":5126,
			"count":13213,
			"type":"VEC3"
		},
		{
			"bufferView":29,
			"componentType":5123,
			"count":62727,
			"type":"SCALAR"
		},
		{
			"bufferView":30,
			"componentType":5126,
			"count":9780,
			"max":[
				11.872385025024414,
				86.82449340820312,
				16.903240203857422
			],
			"min":[
				-17.516843795776367,
				4.031396865844727,
				-27.163429260253906
			],
			"type":"VEC3"
		},
		{
			"bufferView":31,
			"componentType":5126,
			"count":9780,
			"type":"VEC3"
		},
		{
			"bufferView":32,
			"componentType":5123,
			"count":53889,
			"type":"SCALAR"
		},
		{
			"bufferView":33,
			"componentType":5126,
			"count":56,
			"max":[
				1.2340376377105713,
				131.5487823486328,
				8.785013198852539
			],
			"min":[
				-3.8304495811462402,
				130.59092712402344,
				8.01465129852295
			],
			"type":"VEC3"
		},
		{
			"bufferView":34,
			"componentType":5126,
			"count":56,
			"type":"VEC3"
		},
		{
			"bufferView":35,
			"componentType":5123,
			"count":222,
			"type":"SCALAR"
		},
		{
			"bufferView":36,
			"componentType":5126,
			"count":3918,
			"max":[
				2.1440000534057617,
				0,
				1.0089999437332153
			],
			"min":[
				0,
				-0.07999999821186066,
				-0.6820000410079956
			],
			"type":"VEC3"
		},
		{
			"bufferView":37,
			"componentType":5126,
			"count":3918,
			"type":"VEC3"
		},
		{
			"bufferView":38,
			"componentType":5126,
			"count":3918,
			"type":"VEC2"
		},
		{
			"bufferView":39,
			"componentType":5123,
			"count":7776,
			"type":"SCALAR"
		}
	],
	"bufferViews":[
		{
			"buffer":0,
			"byteLength":888,
			"byteOffset":0,
			"target":34962
		},
		{
			"buffer":0,
			"byteLength":888,
			"byteOffset":888,
			"target":34962
		},
		{
			"buffer":0,
			"byteLength":592,
			"byteOffset":1776,
			"target":34962
		},
		{
			"buffer":0,
			"byteLength":864,
			"byteOffset":2368,
			"target":34963
		},
		{
			"buffer":0,
			"byteLength":888,
			"byteOffset":3232,
			"target":34962
		},
		{
			"buffer":0,
			"byteLength":888,
			"byteOffset":4120,
			"target":34962
		},
		{
			"buffer":0,
			"byteLength":592,
			"byteOffset":5008,
			"target":34962
		},
		{
			"buffer":0,
			"byteLength":864,
			"byteOffset":5600,
			"target":34963
		},
		{
			"buffer":0,
			"byteLength":4172988,
			"byteOffset":6464,
			"target":34962
		},
		{
			"buffer":0,
			"byteLength":4172988,
			"byteOffset":4179452,
			"target":34962
		},
		{
			"buffer":0,
			"byteLength":8255904,
			"byteOffset":8352440,
			"target":34963
		},
		{
			"buffer":0,
			"byteLength":411384,
			"byteOffset":16608344,
			"target":34962
		},
		{
			"buffer":0,
			"byteLength":411384,
			"byteOffset":17019728,
			"target":34962
		},
		{
			"buffer":0,
			"byteLength":102912,
			"byteOffset":17431112,
			"target":34963
		},
		{
			"buffer":0,
			"byteLength":5808,
			"byteOffset":17534024,
			"target":34962
		},
		{
			"buffer":0,
			"byteLength":5808,
			"byteOffset":17539832,
			"target":34962
		},
		{
			"buffer":0,
			"byteLength":1224,
			"byteOffset":17545640,
			"target":34963
		},
		{
			"buffer":0,
			"byteLength":5376,
			"byteOffset":17546864,
			"target":34962
		},
		{
			"buffer":0,
			"byteLength":5376,
			"byteOffset":17552240,
			"target":34962
		},
		{
			"buffer":0,
			"byteLength":1176,
			"byteOffset":17557616,
			"target":34963
		},
		{
			"buffer":0,
			"byteLength":480,
			"byteOffset":17558792,
			"target":34962
		},
		{
			"buffer":0,
			"byteLength":480,
			"byteOffset":17559272,
			"target":34962
		},
		{
			"buffer":0,
			"byteLength":120,
			"byteOffset":17559752,
			"target":34963
		},
		{
			"buffer":0,
			"byteLength":8964,
			"byteOffset":17559872,
			"target":34962
		},
		{
			"buffer":0,
			"byteLength":8964,
			"byteOffset":17568836,
			"target":34962
		},
		{
			"buffer":0,
			"byteLength":5976,
			"byteOffset":17577800,
			"target":34962
		},
		{
			"buffer":0,
			"byteLength":6072,
			"byteOffset":17583776,
			"target":34963
		},
		{
			"buffer":0,
			"byteLength":158556,
			"byteOffset":17589848,
			"target":34962
		},
		{
			"buffer":0,
			"byteLength":158556,
			"byteOffset":17748404,
			"target":34962
		},
		{
			"buffer":0,
			"byteLength":125454,
			"byteOffset":17906960,
			"target":34963
		},
		{
			"buffer":0,
			"byteLength":117360,
			"byteOffset":18032416,
			"target":34962
		},
		{
			"buffer":0,
			"byteLength":117360,
			"byteOffset":18149776,
			"target":34962
		},
		{
			"buffer":0,
			"byteLength":107778,
			"byteOffset":18267136,
			"target":34963
		},
		{
			"buffer":0,
			"byteLength":672,
			"byteOffset":18374916,
			"target":34962
		},
		{
			"buffer":0,
			"byteLength":672,
			"byteOffset":18375588,
			"target":34962
		},
		{
			"buffer":0,
			"byteLength":444,
			"byteOffset":18376260,
			"target":34963
		},
		{
			"buffer":0,
			"byteLength":47016,
			"byteOffset":18376704,
			"target":34962
		},
		{
			"buffer":0,
			"byteLength":47016,
			"byteOffset":18423720,
			"target":34962
		},
		{
			"buffer":0,
			"byteLength":31344,
			"byteOffset":18470736,
			"target":34962
		},
		{
			"buffer":0,
			"byteLength":15552,
			"byteOffset":18502080,
			"target":34963
		}
	],
	"samplers":[
		{
			"magFilter":9729,
			"minFilter":9987
		}
	],
	"buffers":[
		{
			"byteLength":18517632,
			"uri":"female_bodybuilder.bin"
		}
	]
}
